<?xml version="1.0" encoding="UTF-8" standalone="no"?>
<!-- Created with Inkscape (http://www.inkscape.org/) -->

<svg
   xmlns:dc="http://purl.org/dc/elements/1.1/"
   xmlns:cc="http://creativecommons.org/ns#"
   xmlns:rdf="http://www.w3.org/1999/02/22-rdf-syntax-ns#"
   xmlns:svg="http://www.w3.org/2000/svg"
   xmlns="http://www.w3.org/2000/svg"
   xmlns:sodipodi="http://sodipodi.sourceforge.net/DTD/sodipodi-0.dtd"
   xmlns:inkscape="http://www.inkscape.org/namespaces/inkscape"
   width="542"
   height="268"
   id="svg2"
   version="1.1"
   inkscape:version="0.48.4 r9939"
   sodipodi:docname="ciub-new-logo.svg"
   inkscape:export-filename="/home/abdelhak/Activities/CIUB/ciub-new-logo.png"
   inkscape:export-xdpi="90"
   inkscape:export-ydpi="90">
  <defs
     id="defs4">
    <clipPath
       id="clipPath3691"
       clipPathUnits="userSpaceOnUse">
      <path
         id="path3693"
         d="m 743,306 0,145 291,0 0,-145 -291,0 z"
         inkscape:connector-curvature="0" />
    </clipPath>
    <clipPath
       id="clipPath3677"
       clipPathUnits="userSpaceOnUse">
      <path
         id="path3679"
         d="m 743,452 0,292 291,0 0,-292 -291,0 z"
         inkscape:connector-curvature="0" />
    </clipPath>
    <clipPath
       id="clipPath3663"
       clipPathUnits="userSpaceOnUse">
      <path
         id="path3665"
         d="m 745,740 0,43 289,0 0,-43 -289,0 z"
         inkscape:connector-curvature="0" />
    </clipPath>
    <clipPath
       id="clipPath3649"
       clipPathUnits="userSpaceOnUse">
      <path
         id="path3651"
         d="m 750,783 0,428 284,0 0,-428 -284,0 z"
         inkscape:connector-curvature="0" />
    </clipPath>
    <clipPath
       id="clipPath3633"
       clipPathUnits="userSpaceOnUse">
      <path
         id="path3635"
         d="m 561,198 0,63 183,0 0,-63 -183,0 z"
         inkscape:connector-curvature="0" />
    </clipPath>
    <clipPath
       id="clipPath3593"
       clipPathUnits="userSpaceOnUse">
      <path
         id="path3595"
         d="m 1540,114 0,67 145,0 0,-67 -145,0 z"
         inkscape:connector-curvature="0" />
    </clipPath>
    <clipPath
       id="clipPath3533"
       clipPathUnits="userSpaceOnUse">
      <path
         id="path3535"
         d="m 1540,2681 0,91 145,0 0,-91 -145,0 z"
         inkscape:connector-curvature="0" />
    </clipPath>
    <clipPath
       id="clipPath3501"
       clipPathUnits="userSpaceOnUse">
      <path
         id="path3503"
         d="m 1540,3482 0,97 145,0 0,-97 -145,0 z"
         inkscape:connector-curvature="0" />
    </clipPath>
    <clipPath
       id="clipPath3457"
       clipPathUnits="userSpaceOnUse">
      <path
         id="path3459"
         d="m 1540,5109 0,94 145,0 0,-94 -145,0 z"
         inkscape:connector-curvature="0" />
    </clipPath>
    <clipPath
       id="clipPath3017"
       clipPathUnits="userSpaceOnUse">
      <path
         id="path3019"
         d="m 2161,57 0,6543 972,0 0,-6543 -972,0 z"
         inkscape:connector-curvature="0" />
    </clipPath>
    <clipPath
       id="clipPath3005"
       clipPathUnits="userSpaceOnUse">
      <path
         id="path3007"
         d="m 1189,57 0,6543 972,0 0,-6543 -972,0 z"
         inkscape:connector-curvature="0" />
    </clipPath>
    <clipPath
       id="clipPath3005-7"
       clipPathUnits="userSpaceOnUse">
      <path
         inkscape:connector-curvature="0"
         id="path3007-8"
         d="m 1189,57 0,6543 972,0 0,-6543 -972,0 z" />
    </clipPath>
    <clipPath
       id="clipPath3005-7-2"
       clipPathUnits="userSpaceOnUse">
      <path
         inkscape:connector-curvature="0"
         id="path3007-8-4"
         d="m 1189,57 0,6543 972,0 0,-6543 -972,0 z" />
    </clipPath>
    <inkscape:perspective
       id="perspective14"
       inkscape:persp3d-origin="267.3215 : 174.17533 : 1"
       inkscape:vp_z="534.64301 : 261.263 : 1"
       inkscape:vp_y="0 : 1000 : 0"
       inkscape:vp_x="0 : 261.263 : 1"
       sodipodi:type="inkscape:persp3d" />
    <clipPath
       id="clipPath20"
       clipPathUnits="userSpaceOnUse">
      <path
         id="path22"
         d="M 0,2160 0,0 l 3240,0 0,2160 -3240,0 z"
         inkscape:connector-curvature="0" />
    </clipPath>
    <inkscape:perspective
       id="perspective10"
       inkscape:persp3d-origin="0.5 : 0.33333333 : 1"
       inkscape:vp_z="1 : 0.5 : 1"
       inkscape:vp_y="0 : 1000 : 0"
       inkscape:vp_x="0 : 0.5 : 1"
       sodipodi:type="inkscape:persp3d" />
    <path
       style="fill:none;stroke:#000000;stroke-width:1.42845714px;stroke-linecap:butt;stroke-linejoin:miter;stroke-opacity:1"
       d="m 198.9707,1256.6914 c 0,0 75.80531,67.6921 222.03069,67.6921 146.22539,0 221.04086,-67.6921 221.04086,-67.6921"
       id="path3155-6"
       inkscape:connector-curvature="0"
       inkscape:transform-center-y="-4.8818459"
       sodipodi:nodetypes="czc" />
    <path
       style="fill:none;stroke:#000000;stroke-width:1.49641824px;stroke-linecap:butt;stroke-linejoin:miter;stroke-opacity:1"
       d="m 177.27763,1236.1514 c 0,0 71.2527,67.6242 243.90483,67.6242 172.65213,0 242.8175,-67.6242 242.8175,-67.6242"
       id="path3155-0"
       inkscape:connector-curvature="0"
       inkscape:transform-center-y="-4.8769447"
       sodipodi:nodetypes="czc" />
    <inkscape:perspective
       id="perspective14-7"
       inkscape:persp3d-origin="267.3215 : 174.17533 : 1"
       inkscape:vp_z="534.64301 : 261.263 : 1"
       inkscape:vp_y="0 : 1000 : 0"
       inkscape:vp_x="0 : 261.263 : 1"
       sodipodi:type="inkscape:persp3d" />
  </defs>
  <sodipodi:namedview
     id="base"
     pagecolor="#ffffff"
     bordercolor="#666666"
     borderopacity="1.0"
     inkscape:pageopacity="0.0"
     inkscape:pageshadow="2"
     inkscape:zoom="0.58148525"
     inkscape:cx="61.576633"
     inkscape:cy="127.93856"
     inkscape:document-units="px"
     inkscape:current-layer="g3971"
     showgrid="false"
     showguides="true"
     inkscape:guide-bbox="true"
     inkscape:snap-center="true"
     inkscape:snap-object-midpoints="true"
     inkscape:snap-bbox="true"
     inkscape:bbox-nodes="true"
     inkscape:bbox-paths="true"
     inkscape:snap-bbox-midpoints="true"
     inkscape:snap-bbox-edge-midpoints="true"
     inkscape:window-width="1366"
     inkscape:window-height="744"
     inkscape:window-x="0"
     inkscape:window-y="24"
     inkscape:window-maximized="1"
     inkscape:object-nodes="true"
     inkscape:snap-smooth-nodes="true"
     inkscape:object-paths="true">
    <sodipodi:guide
       orientation="1,0"
       position="11.466014,255.56837"
       id="guide4887" />
    <sodipodi:guide
       orientation="1,0"
       position="534.36947,285.56837"
       id="guide4889" />
    <sodipodi:guide
       orientation="0,1"
       position="97.03041,236.37701"
       id="guide5228" />
    <sodipodi:guide
       orientation="0,1"
       position="530.36947,255.56837"
       id="guide5262" />
    <sodipodi:guide
       orientation="0,1"
       position="201.04399,77.15608"
       id="guide5268" />
    <sodipodi:guide
       orientation="0,1"
       position="283.24052,39.022882"
       id="guide5270" />
    <sodipodi:guide
       orientation="1,0"
       position="315.67129,91.12611"
       id="guide3841" />
    <sodipodi:guide
       orientation="0,1"
       position="201.04399,213.95295"
       id="guide3933" />
    <sodipodi:guide
       orientation="0,1"
       position="97.03041,100.94098"
       id="guide3935" />
  </sodipodi:namedview>
  <metadata
     id="metadata7">
    <rdf:RDF>
      <cc:Work
         rdf:about="">
        <dc:format>image/svg+xml</dc:format>
        <dc:type
           rdf:resource="http://purl.org/dc/dcmitype/StillImage" />
        <dc:title />
      </cc:Work>
    </rdf:RDF>
  </metadata>
  <g
     inkscape:label="Layer 1"
     inkscape:groupmode="layer"
     id="layer1"
     transform="translate(0,-784.36218)">
    <flowRoot
       transform="translate(0,692.36218)"
       style="font-size:40px;font-style:normal;font-weight:normal;line-height:125%;letter-spacing:0px;word-spacing:0px;fill:#000000;fill-opacity:1;stroke:none;font-family:Sans"
       id="flowRoot3127"
       xml:space="preserve"><flowRegion
         id="flowRegion3129"><rect
           y="423.63962"
           x="-9.8994951"
           height="114.5513"
           width="476.58997"
           id="rect3131" /></flowRegion><flowPara
         id="flowPara3133" /></flowRoot>    <g
       id="g3971"
       transform="translate(-4,30)">
      <path
         style="fill:#0071bd;fill-opacity:1;stroke:none"
         d="m 248.5625,53.4375 0,216.90625 c 43.77488,1.41703 87.77526,-1.99196 130.75,-9.40625 0.94981,-0.17633 1.89053,-0.37725 2.84375,-0.5625 l 0,-206.9375 -133.59375,0 z"
         transform="translate(4,713.36218)"
         id="path3909"
         inkscape:connector-curvature="0" />
      <path
         style="fill:#ff6600;fill-opacity:1;stroke:none"
         d="m 15.466014,766.79381 0,142.04125 c 25.089582,25.28616 60.26105,39.60534 93.642956,51.02058 21.17077,6.72567 42.75073,11.91779 64.59737,15.76766 l 0,-208.82949 z"
         id="rect4082"
         inkscape:connector-curvature="0"
         sodipodi:nodetypes="cccccc"
         inkscape:export-filename="/home/abdelhak/Activities/CIUB/path4943.png"
         inkscape:export-xdpi="90"
         inkscape:export-ydpi="90" />
      <path
         inkscape:connector-curvature="0"
         id="path4101"
         style="font-size:40px;font-style:normal;font-variant:normal;font-weight:bold;font-stretch:normal;line-height:125%;letter-spacing:0px;word-spacing:0px;fill:#ffffff;fill-opacity:1;stroke:none;font-family:Sawasdee;-inkscape-font-specification:Sawasdee Bold"
         d="m 147.12678,883.88425 11.41263,7.4004 c -15.15754,20.09107 -34.32718,30.13655 -57.509,30.13655 -9.391737,0 -18.397001,-1.78328 -27.015876,-5.34975 -8.559538,-3.56636 -15.959909,-8.35142 -22.201165,-14.35488 -6.181856,-6.00355 -11.115464,-13.16612 -14.800784,-21.48791 -3.68533,-8.38117 -5.528016,-17.17841 -5.528016,-26.39174 0,-9.21332 1.842676,-18.01057 5.528016,-26.39174 3.68532,-8.38106 8.618928,-15.60311 14.800784,-21.66615 6.241256,-6.06284 13.641627,-10.87764 22.201165,-14.44422 8.618875,-3.56625 17.624139,-5.34953 27.015876,-5.34964 4.75518,1.1e-4 9.36184,0.44603 13.82,1.33746 4.45796,0.89175 8.38107,2.02102 11.7693,3.38801 3.388,1.30794 6.68697,2.94251 9.89686,4.90393 3.20969,1.96174 5.88455,3.83415 8.02455,5.61712 2.13974,1.72401 4.24989,3.68544 6.33046,5.88469 2.08029,2.13999 3.62576,3.83405 4.63637,5.08218 1.01037,1.18896 2.02086,2.49668 3.03146,3.92306 l -11.23429,8.1138 c -1.60502,-2.02102 -2.91272,-3.62585 -3.92311,-4.81481 -1.01063,-1.18875 -3.09104,-3.17992 -6.2413,-5.97371 -3.091,-2.79369 -6.15224,-5.02269 -9.18363,-6.68722 -3.03156,-1.72358 -6.98435,-3.29878 -11.85842,-4.72547 -4.81481,-1.42648 -9.83756,-2.13977 -15.06825,-2.13977 -7.549051,0 -14.741393,1.42658 -21.577067,4.27965 -6.835727,2.85328 -12.720358,6.68722 -17.653892,11.50181 -4.933662,4.81481 -8.856731,10.58053 -11.769325,17.29728 -2.853173,6.65747 -4.279748,13.67154 -4.279748,21.04199 0,7.31138 1.426575,14.29571 4.279748,20.95297 2.912594,6.65747 6.805952,12.42309 11.680161,17.29727 4.933545,4.81471 10.818186,8.64864 17.653903,11.50182 6.895095,2.85317 14.117159,4.27975 21.66622,4.27975 5.17125,0 10.13456,-0.68355 14.88993,-2.05075 4.81459,-1.3671 8.79715,-2.9423 11.94759,-4.72548 3.15026,-1.78328 6.18178,-3.9528 9.09447,-6.50876 2.97194,-2.55595 5.08209,-4.57697 6.33045,-6.06304 1.30757,-1.48586 2.58556,-3.0909 3.83393,-4.8147"
         inkscape:export-filename="/home/abdelhak/Activities/CIUB/path4943.png"
         inkscape:export-xdpi="90"
         inkscape:export-ydpi="90" />
      <path
         style="fill:#44aa00;fill-opacity:1;stroke:none"
         d="m 188.11295,766.79381 0,211.63773 c 16.34589,2.20244 32.80647,3.71773 49.32769,4.59418 l 0,-216.23191 -49.32769,0 z"
         id="rect4881"
         inkscape:connector-curvature="0"
         inkscape:export-filename="/home/abdelhak/Activities/CIUB/path4943.png"
         inkscape:export-xdpi="90"
         inkscape:export-ydpi="90" />
      <path
         inkscape:connector-curvature="0"
         id="path4103"
         style="font-size:40px;font-style:normal;font-variant:normal;font-weight:bold;font-stretch:normal;line-height:125%;letter-spacing:0px;word-spacing:0px;fill:#ffffff;fill-opacity:1;stroke:none;font-family:Sawasdee;-inkscape-font-specification:Sawasdee Bold"
         d="m 219.46754,945.2061 -14.42355,0 0,-136.79687 14.42355,0 0,136.79687"
         sodipodi:nodetypes="ccccc"
         inkscape:export-filename="/home/abdelhak/Activities/CIUB/path4943.png"
         inkscape:export-xdpi="90"
         inkscape:export-ydpi="90" />
      <path
         inkscape:connector-curvature="0"
         id="path4105"
         style="font-size:40px;font-style:normal;font-variant:normal;font-weight:bold;font-stretch:normal;line-height:125%;letter-spacing:0px;word-spacing:0px;fill:#ffffff;fill-opacity:1;stroke:none;font-family:Sawasdee;-inkscape-font-specification:Sawasdee Bold"
         d="m 268.8714,808.40923 14.42355,0 0,83.27546 c -5e-5,11.06725 3.59828,20.44097 10.79497,28.12138 7.25709,7.62007 15.78418,11.43 25.58137,11.43 6.3499,0 12.24633,-1.69331 17.68923,-5.07994 5.44278,-3.44707 9.79705,-8.2247 13.06284,-14.33289 3.3261,-6.10798 4.98918,-12.8209 4.98928,-20.13855 l 0,-83.27546 14.42354,0 0,83.27546 c -1e-4,9.61581 -2.2377,18.53606 -6.71284,26.76076 -4.47535,8.2247 -10.61365,14.75619 -18.41498,19.59415 -7.741,4.77763 -16.2379,7.1665 -25.49065,7.1665 -6.8943,0 -13.48618,-1.42127 -19.77568,-4.26361 -6.22904,-2.84234 -11.58121,-6.65238 -16.05638,-11.4299 -4.4148,-4.83818 -7.95265,-10.55312 -10.61356,-17.14506 -2.6005,-6.59182 -3.90069,-13.48607 -3.90069,-20.68284 l 0,-83.27546"
         inkscape:export-filename="/home/abdelhak/Activities/CIUB/path4943.png"
         inkscape:export-xdpi="90"
         inkscape:export-ydpi="90" />
      <path
         style="fill:#803300;fill-opacity:1;stroke:none"
         d="m 400.56063,766.79381 0,203.98303 c 47.03829,-10.27525 93.49371,-27.26586 130.62213,-58.52275 1.08391,-0.96526 2.14125,-1.97194 3.18671,-2.98755 l 0,-142.47273 z"
         id="rect4885"
         inkscape:connector-curvature="0"
         sodipodi:nodetypes="cccccc"
         inkscape:export-filename="/home/abdelhak/Activities/CIUB/path4943.png"
         inkscape:export-xdpi="90"
         inkscape:export-ydpi="90" />
      <path
         inkscape:connector-curvature="0"
         id="path4107"
         style="font-size:40px;font-style:normal;font-variant:normal;font-weight:bold;font-stretch:normal;line-height:125%;letter-spacing:0px;word-spacing:0px;fill:#ffffff;fill-opacity:1;stroke:none;font-family:Sawasdee;-inkscape-font-specification:Sawasdee Bold"
         d="m 435.6066,907.45139 35.55992,0 c 8.88993,0 16.35872,-2.69108 22.4064,-8.07355 6.04749,-5.38236 9.07134,-11.73231 9.07143,-19.04986 -9e-5,-7.31755 -3.02394,-13.63734 -9.07143,-18.95926 -6.04768,-5.32181 -13.51647,-7.98282 -22.4064,-7.98282 l -35.55992,0 0,54.06549 m 56.87777,-87.35764 0,-0.18154 c -9e-5,-5.26137 -2.23771,-9.88774 -6.71288,-13.87931 -4.4148,-4.0518 -9.85767,-6.0777 -16.32851,-6.07781 l -33.83638,0 0,39.6421 33.83638,0 c 6.59179,0 12.0649,-1.93518 16.41922,-5.80577 4.41469,-3.93081 6.62208,-8.49674 6.62217,-13.69778 m -22.49709,-34.10847 c 10.15988,1.1e-4 18.86843,3.35646 26.12564,10.06928 7.31752,6.65237 10.97632,14.66547 10.97641,24.03919 -9e-5,4.95917 -1.11892,9.64598 -3.35644,14.06064 -2.23769,4.35444 -5.32197,8.07365 -9.25285,11.15786 6.8942,3.50772 12.36727,8.37596 16.41928,14.60503 4.11224,6.16853 6.16843,12.97206 6.16853,20.4106 -10e-5,7.55952 -2.11676,14.51432 -6.34995,20.86427 -4.17296,6.34996 -9.76701,11.30902 -16.78211,14.87707 -7.01533,3.56817 -14.60505,5.35209 -22.76927,5.35209 l -49.98347,0 0,-135.43603 48.80423,0"
         inkscape:export-filename="/home/abdelhak/Activities/CIUB/path4943.png"
         inkscape:export-xdpi="90"
         inkscape:export-ydpi="90" />
      <path
         style="fill:#ffffff;fill-opacity:1;stroke:none"
         d="m 319.67129,785.98517 -20.53125,26.375 20.53125,-12.8125 20.5625,12.8125 -20.5625,-26.375 z m 0,17.96875 -20.53125,26.375 20.53125,-12.8125 20.5625,12.8125 -20.5625,-26.375 z m 0,17.96875 -20.53125,26.375 20.53125,-12.8125 20.5625,12.8125 -20.5625,-26.375 z m 0,17.96875 -20.53125,26.375 20.53125,-12.8125 20.5625,12.8125 -20.5625,-26.375 z"
         id="path3888"
         inkscape:connector-curvature="0" />
      <path
         inkscape:connector-curvature="0"
         id="path3290"
         d="m 529.5625,929.36218 c -0.46592,-0.0229 -0.91609,0.0286 -1.375,0.125 -0.91781,0.19279 -1.81009,0.57413 -2.65625,1.15626 -0.97151,0.66847 -1.69889,1.45505 -2.21875,2.34374 -0.51984,0.88868 -0.82444,1.85567 -0.87499,2.90625 -0.056,1.04282 0.12871,2.15468 0.53124,3.34375 0.41038,1.18364 1.03839,2.39488 1.90625,3.65625 0.95412,1.38677 1.93178,2.48564 2.90625,3.28125 0.97448,0.79549 1.94714,1.33832 2.90626,1.625 0.95372,0.27881 1.86342,0.31779 2.78125,0.125 0.91779,-0.19279 1.81008,-0.57413 2.65624,-1.15624 0.97935,-0.67379 1.73798,-1.46039 2.25,-2.34376 0.512,-0.88326 0.78777,-1.83218 0.84375,-2.875 0.0584,-1.056 -0.1209,-2.19124 -0.53125,-3.375 -0.41038,-1.18364 -1.0384,-2.39477 -1.90625,-3.65625 -0.9595,-1.39454 -1.93178,-2.48576 -2.90625,-3.28125 -0.97448,-0.79561 -1.95252,-1.3461 -2.90624,-1.625 -0.47294,-0.1421 -0.94034,-0.22715 -1.40626,-0.25 z m -508.874999,1.34375 c -0.505009,0.0188 -1.025134,0.10706 -1.531251,0.25001 -1.00654,0.27823 -2.000453,0.80304 -3,1.5625 -0.991958,0.76516 -1.954725,1.74502 -2.875,2.96874 -1.011734,1.3453 -1.742782,2.60444 -2.1875,3.78125 -0.44472,1.17669 -0.626662,2.28074 -0.59375,3.28125 0.03863,0.99288 0.275566,1.87858 0.75,2.6875 0.474436,0.80902 1.116642,1.53888 1.9375,2.15626 0.950055,0.71445 1.937305,1.1701 2.9375,1.37499 1.000184,0.20492 1.993461,0.15336 3,-0.12499 1.019834,-0.28019 2.039293,-0.79735 3.03125,-1.5625 0.991947,-0.76515 1.954703,-1.74504 2.875,-2.96876 1.017438,-1.35294 1.74276,-2.63569 2.1875,-3.8125 0.444698,-1.1767 0.632362,-2.25713 0.59375,-3.25 -0.03106,-0.98717 -0.275587,-1.87858 -0.75,-2.6875 -0.474457,-0.80902 -1.116663,-1.53888 -1.9375,-2.15624 -0.942476,-0.70877 -1.929739,-1.16452 -2.9375,-1.37501 -0.503905,-0.10537 -0.994992,-0.14379 -1.499999,-0.125 z m 507.750009,1.87501 c 0.17043,-0.0134 0.32366,-0.0173 0.49999,0 0.70776,0.0555 1.47338,0.38181 2.28125,0.96874 l -2.90625,8.12501 c -0.11269,-0.13021 -0.18958,-0.27307 -0.28125,-0.40626 -0.097,-0.14106 -0.20467,-0.28079 -0.3125,-0.4375 -0.65763,-0.9558 -1.14567,-1.85109 -1.46874,-2.65625 -0.31522,-0.81047 -0.51864,-1.53659 -0.56251,-2.18749 -0.036,-0.65635 0.0561,-1.20935 0.28125,-1.68751 0.21976,-0.48592 0.56126,-0.88559 1,-1.1875 0.45834,-0.31536 0.95743,-0.49118 1.46876,-0.53124 z m -507.03126,1.18749 c 0.13659,-0.004 0.275032,0.016 0.40625,0.0312 0.530582,0.0539 1.011858,0.24235 1.4375,0.5625 0.592819,0.44588 0.966122,0.99689 1.125001,1.68751 0.17215,0.68879 0.112347,1.51632 -0.187501,2.46874 l -8.625,-0.1562 c 0.08768,-0.14825 0.184042,-0.27703 0.28125,-0.40625 0.102881,-0.13673 0.198166,-0.28549 0.3125,-0.43749 0.697347,-0.92722 1.370503,-1.68791 2.03125,-2.25001 0.668327,-0.55638 1.334218,-0.93912 1.9375,-1.18749 0.458167,-0.18034 0.871481,-0.30105 1.28125,-0.3125 z m 511.96875,2.0625 c 0.0863,0.12542 0.17641,0.23936 0.28125,0.375 0.0995,0.12776 0.18958,0.27307 0.28125,0.40626 0.65222,0.94804 1.14031,1.81207 1.46876,2.62499 0.32306,0.80505 0.52659,1.53127 0.56249,2.1875 0.0385,0.64313 -0.0537,1.22752 -0.28124,1.71875 -0.21977,0.48604 -0.56127,0.88559 -1.00001,1.1875 -0.60327,0.41539 -1.26099,0.58681 -1.96875,0.53126 -0.70776,-0.0557 -1.44516,-0.38131 -2.21875,-0.96875 l 2.875,-8.06251 z m -18.34375,1.84375 -2.5,1.50001 -3.46875,5.71874 2.4375,1.84376 2.375,-4.0625 6.125,10.28124 -4.0625,2.4375 1.59375,2.65626 10.65625,-6.34376 -1.59374,-2.65625 -3.53126,2.09376 -8.03125,-13.46876 z m -485.3125,1.9375 -0.53125,3.00001 4.71875,0.24999 -6.3125,10.18751 -4.0625,-2.53125 -1.625,2.65624 10.531251,6.53125 1.656249,-2.625 -3.5,-2.15624 8.28125,-13.31251 -2.46875,-1.53124 -6.6875,-0.46876 z m -15.5625,1.53125 8.5625,0.15625 c -0.09148,0.12159 -0.185967,0.23245 -0.28125,0.37501 -0.0896,0.13492 -0.184044,0.27703 -0.28125,0.40624 -0.691654,0.91958 -1.364809,1.68028 -2.03125,2.25 -0.660745,0.56221 -1.295399,0.94494 -1.90625,1.1875 -0.597565,0.24021 -1.180564,0.34105 -1.71875,0.28126 -0.530593,-0.0539 -1.011881,-0.24235 -1.4375,-0.56251 -0.585253,-0.44018 -0.952829,-0.99881 -1.125,-1.68749 -0.172173,-0.6888 -0.0925,-1.4861 0.21875,-2.40626 z m 488.5,4.03126 c -0.93419,0.0826 -1.87202,0.36612 -2.78125,0.84374 -1.04393,0.54854 -1.87843,1.24174 -2.5,2.0625 -0.62157,0.82076 -1.01269,1.74402 -1.1875,2.78126 -0.17924,1.02878 -0.13367,2.14665 0.12501,3.37499 0.2671,1.22402 0.75661,2.51966 1.46874,3.87501 0.7829,1.49015 1.59553,2.68817 2.46875,3.59374 0.87325,0.90557 1.76917,1.5704 2.68751,1.96875 0.91394,0.39055 1.84703,0.51982 2.78124,0.4375 0.93417,-0.0826 1.87202,-0.33476 2.78125,-0.8125 1.05235,-0.55296 1.85558,-1.24616 2.46875,-2.06249 0.61316,-0.81623 1.00826,-1.75247 1.1875,-2.78126 0.18323,-1.04165 0.14208,-2.15097 -0.125,-3.375 -0.2671,-1.22403 -0.75664,-2.51953 -1.46875,-3.875 -0.78733,-1.4985 -1.59552,-2.71943 -2.46875,-3.625 -0.87326,-0.90557 -1.77359,-1.54751 -2.6875,-1.9375 -0.90552,-0.39485 -1.81579,-0.55097 -2.75,-0.46874 z M 46.125,946.79968 c -0.757843,0.0494 -1.469078,0.23656 -2.187499,0.56251 -0.953399,0.42605 -1.875706,1.09921 -2.750001,1.99999 -0.865951,0.90537 -1.679958,2.02718 -2.40625,3.37501 -0.798484,1.48188 -1.330608,2.83235 -1.59375,4.0625 -0.263109,1.23012 -0.276394,2.32833 -0.09375,3.31249 0.187135,0.97588 0.565821,1.83382 1.15625,2.5625 0.590417,0.72857 1.345818,1.32522 2.25,1.8125 1.046479,0.5639 2.074152,0.88534 3.09375,0.9375 1.019592,0.0525 2.01534,-0.13643 2.96875,-0.5625 0.966262,-0.43001 1.852798,-1.09464 2.71875,-2 0.865918,-0.90536 1.679926,-2.02716 2.40625,-3.375 0.80296,-1.49028 1.330574,-2.8636 1.59375,-4.09375 0.263188,-1.23012 0.312124,-2.3366 0.125,-3.31249 -0.178791,-0.97133 -0.565843,-1.80258 -1.15625,-2.53125 -0.590439,-0.72857 -1.345841,-1.35648 -2.25,-1.84375 -1.038135,-0.55933 -2.065813,-0.84975 -3.09375,-0.90626 -0.256995,-0.0142 -0.528635,-0.0165 -0.78125,0 z m 456.40625,1.46876 c 0.17083,0.007 0.32695,0.0245 0.5,0.0624 0.69617,0.1391 1.42371,0.57135 2.15625,1.25 l -3.84374,7.71875 c -0.0965,-0.14265 -0.1748,-0.29435 -0.25001,-0.43751 -0.0796,-0.15149 -0.16152,-0.30032 -0.25,-0.46874 -0.53963,-1.02709 -0.93095,-1.97465 -1.15625,-2.8125 -0.21677,-0.84206 -0.31492,-1.59846 -0.28125,-2.25 0.0421,-0.65586 0.21976,-1.20822 0.5,-1.65625 0.27584,-0.45649 0.6223,-0.7836 1.09375,-1.03125 0.4925,-0.25906 1.01878,-0.39589 1.53125,-0.375 z m -455.5625,1.49999 c 0.532667,-0.0263 1.031158,0.0913 1.5,0.34375 0.653,0.35185 1.11432,0.87228 1.375,1.53125 0.273537,0.65514 0.341071,1.45079 0.1875,2.4375 l -8.5625,1.15626 c 0.06445,-0.15975 0.142014,-0.32643 0.21875,-0.46876 0.08119,-0.15073 0.159784,-0.30133 0.25,-0.46874 0.550359,-1.02142 1.118547,-1.87644 1.687501,-2.53125 0.577282,-0.65048 1.128312,-1.13273 1.687499,-1.46876 0.567539,-0.33158 1.128127,-0.51032 1.65625,-0.53125 z m 442.12501,2.28126 c -0.9371,0.0375 -1.88131,0.25418 -2.81251,0.6875 -1.06915,0.49752 -1.93334,1.14772 -2.59374,1.93749 -0.66044,0.78988 -1.08788,1.69117 -1.31251,2.71875 -0.22859,1.01899 -0.26165,2.16683 -0.0625,3.40625 0.20778,1.23546 0.6353,2.54936 1.28125,3.9375 0.71016,1.5261 1.48393,2.77224 2.31251,3.71876 0.82857,0.9466 1.69567,1.62028 2.59374,2.06249 0.89405,0.43363 1.81291,0.63114 2.75001,0.59375 0.93708,-0.0374 1.85005,-0.25419 2.78125,-0.6875 1.07777,-0.5015 1.94194,-1.1517 2.59375,-1.93749 0.65179,-0.78579 1.1151,-1.69987 1.34374,-2.71876 0.23315,-1.03156 0.23901,-2.17068 0.0312,-3.40625 -0.20778,-1.23534 -0.6353,-2.54936 -1.28125,-3.93749 -0.71418,-1.53481 -1.48394,-2.77224 -2.3125,-3.71876 -0.82858,-0.94661 -1.69972,-1.62887 -2.59376,-2.0625 -0.88544,-0.43761 -1.78166,-0.63114 -2.71874,-0.59374 z m 17.96875,0.0312 c 0.0709,0.1348 0.13079,0.29031 0.21874,0.43751 0.0836,0.13872 0.1748,0.26309 0.25,0.40624 0.5352,1.01864 0.89529,1.9663 1.125,2.8125 0.22528,0.83775 0.32331,1.5628 0.28126,2.21875 -0.0381,0.64309 -0.1845,1.19544 -0.46876,1.65625 -0.27583,0.45649 -0.65356,0.81485 -1.12499,1.06251 -0.64826,0.34015 -1.33509,0.45159 -2.03126,0.3125 -0.69619,-0.13922 -1.39531,-0.54374 -2.09374,-1.21875 l 3.84375,-7.68751 z m -446.71876,1.65627 c -1.029557,-0.003 -2.003893,0.23427 -2.9375,0.71875 -0.929562,0.47586 -1.830754,1.17926 -2.65625,2.125 -0.816925,0.94985 -1.53341,2.14687 -2.1875,3.53125 -0.719094,1.5219 -1.177195,2.88269 -1.374999,4.125 -0.197468,1.2423 -0.203116,2.37054 0.03125,3.34375 0.238422,0.96462 0.684415,1.77234 1.312499,2.46876 0.628085,0.69653 1.415103,1.28002 2.34375,1.71874 1.07482,0.50787 2.104053,0.75212 3.125,0.75 1.020931,-9.9e-4 2.007928,-0.24288 2.9375,-0.71875 0.942201,-0.48036 1.808076,-1.17514 2.625001,-2.125 0.816891,-0.94986 1.564636,-2.14686 2.218749,-3.53125 0.723139,-1.53051 1.177161,-2.91394 1.375001,-4.15625 0.197791,-1.24231 0.175912,-2.34789 -0.0625,-3.31249 -0.229843,-0.96062 -0.653179,-1.77235 -1.281251,-2.46875 -0.628095,-0.69642 -1.415124,-1.28002 -2.343749,-1.71876 -1.066238,-0.50374 -2.095478,-0.74788 -3.125001,-0.75 z m 427.96875,1.40625 c 0.33915,-0.0319 0.65798,10e-4 1,0.0937 0.68866,0.17262 1.39478,0.5993 2.09375,1.3125 l -4.21874,7.53125 c -0.0895,-0.14716 -0.15055,-0.29094 -0.21876,-0.4375 -0.0722,-0.15521 -0.1698,-0.32761 -0.25,-0.5 -0.48949,-1.05195 -0.81536,-1.99615 -1,-2.84375 -0.176,-0.85167 -0.22125,-1.60081 -0.15625,-2.25 0.0737,-0.65306 0.26099,-1.19108 0.5625,-1.625 0.29752,-0.44261 0.67342,-0.77526 1.15625,-1 0.33627,-0.15646 0.6921,-0.24931 1.03125,-0.28125 z m -427.75,1.5625 c 0.530535,-0.0543 1.018466,0.0537 1.5,0.28125 0.670679,0.3169 1.173624,0.79322 1.468751,1.43751 0.30775,0.63978 0.413741,1.44407 0.312499,2.43749 l -8.499999,1.59376 c 0.05592,-0.16286 0.118475,-0.32263 0.1875,-0.46876 0.07311,-0.15484 0.168748,-0.32802 0.25,-0.5 0.495639,-1.04895 0.99768,-1.90969 1.531249,-2.59375 0.542128,-0.67995 1.084339,-1.19736 1.625001,-1.5625 0.549231,-0.36102 1.098498,-0.57943 1.624999,-0.625 z m -11.59375,0.34375 c -0.0722,0.13393 -0.145954,0.28233 -0.21875,0.4375 -0.06833,0.14678 -0.14212,0.29517 -0.21875,0.4375 -0.545871,1.01301 -1.08282,1.83679 -1.65625,2.5 -0.568939,0.65492 -1.151211,1.16843 -1.71875,1.5 -0.554676,0.32765 -1.115217,0.4777 -1.656249,0.5 -0.532689,0.0263 -1.031169,-0.0912 -1.500001,-0.34375 -0.644647,-0.34738 -1.101466,-0.84486 -1.375,-1.49999 -0.273567,-0.65515 -0.325939,-1.44981 -0.15625,-2.40626 l 8.5,-1.125 z m 426.1875,1.25 c -0.93784,-0.004 -1.89441,0.20182 -2.84375,0.59375 -1.08997,0.45015 -1.99303,1.05256 -2.6875,1.8125 -0.69447,0.76017 -1.16795,1.63954 -1.4375,2.65625 -0.27315,1.0079 -0.33201,2.12806 -0.1875,3.375 0.15332,1.24341 0.50938,2.58488 1.09375,4 0.64245,1.55588 1.37004,2.83049 2.15625,3.8125 0.78619,0.98202 1.62222,1.70626 2.5,2.1875 0.87416,0.47243 1.78092,0.7145 2.71876,0.71875 0.93781,0.004 1.86316,-0.2017 2.8125,-0.59375 1.09876,-0.45367 2.00179,-1.05609 2.68749,-1.81249 0.68565,-0.75641 1.16432,-1.64835 1.43751,-2.65626 0.27821,-1.02035 0.34079,-2.13158 0.18749,-3.375 -0.15331,-1.24329 -0.50937,-2.58476 -1.09375,-3.99999 -0.64607,-1.56458 -1.37007,-2.8305 -2.15625,-3.8125 -0.78621,-0.98212 -1.62584,-1.71507 -2.5,-2.1875 -0.86535,-0.47608 -1.74967,-0.71451 -2.6875,-0.71876 z m 18.00001,0.84375 c 0.0642,0.13796 0.13791,0.28625 0.21874,0.4375 0.0768,0.14257 0.15055,0.29096 0.21875,0.4375 0.48546,1.04337 0.81135,1.98759 1,2.84375 0.1846,0.84772 0.22998,1.59696 0.15626,2.25 -0.0692,0.64061 -0.25636,1.20966 -0.56251,1.65625 -0.29751,0.44262 -0.6734,0.77539 -1.15625,1 -0.66392,0.30898 -1.34258,0.36001 -2.03125,0.1875 -0.68866,-0.1726 -1.36616,-0.60451 -2.03125,-1.3125 l 4.18751,-7.5 z M 74.1875,960.04968 c -1.028537,0.0459 -1.996486,0.31588 -2.906249,0.84376 -0.906125,0.51914 -1.751198,1.26642 -2.531251,2.25 -0.771288,0.98722 -1.443068,2.21134 -2.031249,3.62499 -0.646638,1.55407 -1.017156,2.93717 -1.156251,4.18751 -0.139108,1.25021 -0.09243,2.35134 0.1875,3.31249 0.283578,0.95232 0.777314,1.77146 1.437501,2.4375 0.660177,0.66616 1.457978,1.1992 2.406249,1.59375 1.097528,0.45665 2.136512,0.6439 3.15625,0.59376 1.019736,-0.0496 2.000113,-0.32472 2.90625,-0.84376 0.918539,-0.52432 1.75995,-1.26277 2.531251,-2.25 0.771266,-0.98722 1.443044,-2.21148 2.031249,-3.625 0.650274,-1.5629 1.048383,-2.96841 1.1875,-4.21875 0.139076,-1.25021 0.06482,-2.32893 -0.21875,-3.28124 -0.274813,-0.94866 -0.746085,-1.77147 -1.40625,-2.43751 -0.660199,-0.66614 -1.457989,-1.1991 -2.40625,-1.59375 -1.088774,-0.45298 -2.158995,-0.63952 -3.1875,-0.59375 z m 400.03125,1.3125 c 0.34022,-0.0171 0.69362,0.0175 1.03125,0.125 0.68042,0.20265 1.333,0.66301 2,1.40625 l -4.53124,7.34375 c -0.083,-0.15098 -0.15703,-0.28803 -0.21876,-0.4375 -0.0653,-0.15828 -0.11495,-0.32421 -0.1875,-0.5 -0.4428,-1.07235 -0.75902,-2.05135 -0.90624,-2.90625 -0.13853,-0.85854 -0.15598,-1.60434 -0.0625,-2.25 0.10229,-0.64931 0.30471,-1.17341 0.625,-1.59375 0.31666,-0.42914 0.7265,-0.76544 1.21874,-0.96875 0.34281,-0.14174 0.69103,-0.20168 1.03126,-0.21875 z m -399.281249,1.59375 c 0.388851,-0.006 0.787467,0.0654 1.156249,0.21875 0.684854,0.28506 1.174865,0.74532 1.5,1.375 0.337539,0.62464 0.491865,1.44045 0.4375,2.4375 l -8.40625,1.96875 c 0.04819,-0.16541 0.125391,-0.31939 0.1875,-0.46874 L 70,967.98718 c 0.445694,-1.07119 0.936733,-1.94784 1.437501,-2.65624 0.509522,-0.70476 1.008376,-1.26605 1.531249,-1.65626 0.531616,-0.38654 1.069992,-0.61728 1.593751,-0.6875 0.131847,-0.0198 0.245382,-0.0292 0.375,-0.0312 z m -12,0.90625 c -0.06501,0.13762 -0.122981,0.30991 -0.1875,0.46875 -0.06048,0.15024 -0.118477,0.29126 -0.187501,0.4375 -0.491604,1.04044 -0.993658,1.90108 -1.53125,2.59375 -0.533571,0.68394 -1.075756,1.20148 -1.624999,1.5625 -0.536594,0.35651 -1.085863,0.57465 -1.625001,0.625 -0.530556,0.0543 -1.049739,-0.0536 -1.53125,-0.28125 -0.662096,-0.31279 -1.129736,-0.76657 -1.4375,-1.40624 -0.307831,-0.6398 -0.400184,-1.44218 -0.28125,-2.40626 l 8.406251,-1.59375 z m 397.249999,0.125 c -0.70785,0.0427 -1.4329,0.20392 -2.15625,0.46875 -1.10734,0.4055 -2.02525,0.95634 -2.75,1.6875 -0.72474,0.73128 -1.25191,1.62012 -1.5625,2.62501 -0.31386,0.99606 -0.4063,2.09194 -0.3125,3.34374 0.10272,1.24861 0.41107,2.59349 0.9375,4.03125 0.57875,1.58065 1.25433,2.89315 2,3.90625 0.74569,1.01321 1.54873,1.76482 2.40625,2.28126 0.85424,0.50752 1.75063,0.80242 2.6875,0.84374 0.9369,0.0419 1.87928,-0.11563 2.84375,-0.46875 1.11627,-0.40871 2.03419,-0.99077 2.75001,-1.71875 0.71581,-0.72796 1.21739,-1.59769 1.53124,-2.59375 0.3199,-1.00819 0.44647,-2.12639 0.34376,-3.375 -0.10272,-1.2485 -0.44235,-2.59337 -0.96875,-4.03124 -0.58204,-1.58946 -1.22308,-2.89305 -1.96876,-3.90626 -0.74568,-1.01309 -1.55201,-1.77362 -2.40624,-2.28125 -0.84533,-0.5107 -1.75063,-0.77117 -2.68751,-0.8125 -0.23423,-0.0106 -0.45155,-0.0142 -0.6875,0 z m 18.6875,1.59375 c 0.0581,0.14066 0.14471,0.28287 0.21875,0.4375 0.0705,0.14581 0.12578,0.28803 0.18751,0.4375 0.43917,1.06355 0.72411,2.04253 0.87499,2.90625 0.14723,0.8549 0.19604,1.60069 0.0937,2.25001 -0.0971,0.63684 -0.3308,1.16095 -0.65625,1.59375 -0.31666,0.42913 -0.69525,0.76554 -1.1875,0.96875 -0.67685,0.27894 -1.38209,0.32766 -2.0625,0.12499 -0.68043,-0.20265 -1.33538,-0.70105 -1.96874,-1.43749 l 4.49999,-7.28126 z m -389.6875,0.125 c -0.261501,-0.008 -0.52485,0.009 -0.78125,0.0312 -1.025603,0.0901 -1.988788,0.4023 -2.875,0.96875 -0.882953,0.55773 -1.669239,1.35882 -2.406249,2.37499 -0.728103,1.0196 -1.379433,2.24981 -1.906251,3.6875 -0.579173,1.58048 -0.914851,2.99492 -1,4.25001 -0.08518,1.25507 0.05397,2.33298 0.375,3.28124 0.324291,0.93921 0.811764,1.73791 1.500001,2.37501 0.688224,0.63709 1.535623,1.14654 2.499999,1.49999 1.116173,0.40935 2.170833,0.56265 3.1875,0.46876 1.016655,-0.0933 1.960796,-0.41114 2.843751,-0.96875 0.895136,-0.56323 1.709394,-1.35551 2.437499,-2.37501 0.728084,-1.01947 1.348159,-2.24981 1.875,-3.6875 0.582427,-1.58941 0.914851,-3.02616 1,-4.28125 0.08515,-1.25509 -0.01948,-2.34204 -0.34375,-3.28125 -0.315388,-0.936 -0.811787,-1.73789 -1.499999,-2.375 -0.688249,-0.6371 -1.535646,-1.1153 -2.500001,-1.46875 -0.830444,-0.30462 -1.621747,-0.47461 -2.40625,-0.49999 z m 370.65625,1.28125 c 0.34064,-0.003 0.66701,0.0664 1,0.18751 0.67163,0.23011 1.33248,0.73035 1.96875,1.49999 l -4.8125,7.125 c -0.0767,-0.15425 -0.16319,-0.28567 -0.21875,-0.43749 -0.0589,-0.16076 -0.12207,-0.35264 -0.18749,-0.53126 -0.39892,-1.08944 -0.63763,-2.0461 -0.75001,-2.90624 -0.10357,-0.86347 -0.0884,-1.60869 0.0312,-2.25001 0.12857,-0.64463 0.35041,-1.18671 0.6875,-1.59375 0.33384,-0.41597 0.7499,-0.72314 1.25,-0.90624 0.34827,-0.12765 0.69062,-0.18428 1.03126,-0.18751 z m -370.5625,1.625 c 0.388221,-0.0231 0.781203,0.0501 1.156251,0.18751 0.696467,0.25528 1.210581,0.66619 1.562499,1.28125 0.364102,0.60952 0.542648,1.43886 0.53125,2.43749 l -8.3125,2.3125 c 0.041,-0.16719 0.100594,-0.31691 0.15625,-0.46875 0.0589,-0.16066 0.122098,-0.32146 0.1875,-0.49999 0.399196,-1.08944 0.842683,-2.0207 1.312501,-2.75001 0.478734,-0.72599 0.963151,-1.27513 1.468749,-1.68749 0.514505,-0.40906 1.042254,-0.65727 1.5625,-0.75001 0.130871,-0.0255 0.245594,-0.0548 0.375,-0.0625 z m 356.40625,0.34375 -2.78125,0.90625 -4.65625,4.78125 1.96876,2.37501 3.21874,-3.46875 3.6875,11.40624 -4.53125,1.46876 0.96875,2.93752 11.81251,-3.81253 -0.96875,-2.93749 -3.87501,1.24999 -4.84375,-14.90625 z m -368.40625,1.09376 c -0.05847,0.14052 -0.0993,0.27585 -0.15625,0.43749 -0.05334,0.15292 -0.12538,0.31949 -0.1875,0.46876 -0.442065,1.06247 -0.901855,1.93901 -1.40625,2.65624 -0.500758,0.70829 -1.030872,1.2697 -1.5625,1.65625 -0.519214,0.38138 -1.05759,0.61134 -1.59375,0.6875 -0.527414,0.0793 -1.008311,-0.0142 -1.499999,-0.21874 -0.676098,-0.28129 -1.193713,-0.71923 -1.531251,-1.34376 -0.337528,-0.62462 -0.479672,-1.40638 -0.40625,-2.375 l 8.34375,-1.96874 z m 28.125,1.09374 -6.59375,1.15625 0.21875,3.06251 4.625,-0.90625 -3.65625,11.40624 -4.53125,-1.4375 -0.937499,2.93755 11.812499,3.81248 0.9375,-2.96875 -3.90625,-1.25004 4.8125,-14.90624 -2.78125,-0.90625 z m 358.9375,0.25 c 0.0523,0.1429 0.0884,0.31131 0.15626,0.46875 0.0645,0.14852 0.13194,0.28567 0.18749,0.4375 0.39564,1.08064 0.66556,2.06831 0.78126,2.9375 0.11241,0.86015 0.0973,1.60549 -0.0312,2.25 -0.12291,0.63238 -0.34476,1.14334 -0.68749,1.5625 -0.33384,0.41597 -0.74993,0.72313 -1.25001,0.90625 -0.68756,0.25655 -1.39088,0.26126 -2.0625,0.0312 -0.67164,-0.23011 -1.30331,-0.70714 -1.90625,-1.46875 l 4.8125,-7.12499 z m -33.40625,2.25 c -0.70907,-0.008 -1.44667,0.10144 -2.1875,0.3125 -1.13411,0.32317 -2.09855,0.82397 -2.875,1.5 -0.77645,0.67603 -1.33524,1.48929 -1.71874,2.46876 -0.3861,0.97029 -0.59588,2.08844 -0.59375,3.34374 0.0108,1.25276 0.23674,2.62124 0.65624,4.09375 0.4612,1.61892 1.01818,2.96605 1.6875,4.03126 0.66934,1.06511 1.43269,1.89079 2.25,2.46875 0.8147,0.56893 1.66244,0.88952 2.59375,0.99999 0.93131,0.11047 1.91847,0.0319 2.90625,-0.24994 1.14326,-0.32569 2.07643,-0.82653 2.84375,-1.5001 0.76732,-0.67335 1.36389,-1.49839 1.75,-2.46875 0.39264,-0.98193 0.57334,-2.09095 0.5625,-3.34371 -0.0108,-1.25265 -0.23675,-2.62122 -0.65625,-4.09375 -0.46381,-1.62804 -1.01818,-2.96607 -1.68749,-4.03125 -0.66934,-1.06517 -1.40406,-1.89983 -2.21875,-2.46875 -0.80556,-0.57146 -1.6937,-0.88959 -2.62501,-1 -0.23283,-0.0276 -0.45114,-0.0594 -0.6875,-0.0625 z m -339.03125,1.9375 c -0.05242,0.14279 -0.07507,0.30466 -0.125,0.46876 -0.04667,0.15503 -0.100594,0.28576 -0.15625,0.43749 -0.395952,1.0805 -0.839426,2.01187 -1.312499,2.75 -0.469818,0.72931 -0.954258,1.27845 -1.468751,1.6875 -0.502325,0.40331 -1.030076,0.65154 -1.5625,0.75001 -0.523515,0.10197 -1.031218,0.0894 -1.53125,-0.0937 -0.687562,-0.25198 -1.229648,-0.70297 -1.59375,-1.31251 -0.364077,-0.60942 -0.531686,-1.40409 -0.5,-2.375 l 8.25,-2.31249 z m 28.21875,0.0312 -6.53125,1.40626 0.3125,3.03124 4.625,-1.06249 -3.25,11.53118 -4.59375,-1.28116 -0.8125,2.96874 11.9375,3.34371 0.84375,-2.96874 -3.9375,-1.09379 4.21875,-15.09369 -2.8125,-0.78126 z m 310.25,1 c 0.33995,0.0218 0.6768,0.10474 1,0.25 0.65294,0.27879 1.26567,0.84204 1.84375,1.65625 l -5.34375,6.75001 c -0.0652,-0.15941 -0.11195,-0.31324 -0.15625,-0.46876 -0.0469,-0.16457 -0.1041,-0.31709 -0.15625,-0.49999 -0.31789,-1.11579 -0.51353,-2.13387 -0.56249,-3.00001 -0.0398,-0.86866 0.0211,-1.61919 0.18749,-2.25 0.17553,-0.63347 0.44645,-1.11884 0.8125,-1.5 0.36344,-0.39033 0.80032,-0.66658 1.3125,-0.81249 0.3567,-0.10155 0.72255,-0.14679 1.0625,-0.12501 z m -29.40625,4.56251 -2.84375,0.59375 -5.15624,4.31249 1.71874,2.53125 3.5625,-3.09374 2.53125,11.7187 -4.65624,0.99999 0.65625,3.03132 12.15624,-2.62502 -0.65625,-3.03131 -4,0.87508 -3.3125,-15.31251 z m 33.5625,0.18755 c 0.0417,0.14633 0.10028,0.27546 0.15625,0.43749 0.0534,0.15289 0.0807,0.31334 0.125,0.46876 0.31528,1.1067 0.51088,2.09355 0.5625,2.96874 0.049,0.86615 -0.012,1.61657 -0.18749,2.24994 -0.169,0.62162 -0.43992,1.13829 -0.81251,1.53132 -0.36346,0.39016 -0.80032,0.66666 -1.3125,0.81251 -0.70425,0.20065 -1.37832,0.15381 -2.03125,-0.12503 -0.65294,-0.27873 -1.26708,-0.82122 -1.81249,-1.62501 l 5.31249,-6.71872 z m -285.34375,1.37499 c -0.53902,-8.7e-4 -1.06163,0.0375 -1.5625,0.15626 -1.00174,0.23769 -1.92394,0.71728 -2.71875,1.40624 -0.7929,0.6796 -1.48043,1.57519 -2.06249,2.68744 -0.57278,1.11418 -0.99946,2.40757 -1.31251,3.90628 -0.34421,1.64774 -0.47251,3.12085 -0.375,4.37504 0.0975,1.25418 0.3888,2.32704 0.84375,3.21869 0.4569,0.8824 1.07051,1.56307 1.84375,2.09377 0.77325,0.5307 1.65085,0.9149 2.65625,1.1251 1.16362,0.2379 2.25757,0.2397 3.25,0 0.99243,-0.2396 1.86335,-0.6955 2.65625,-1.3751 0.80411,-0.68699 1.48972,-1.60456 2.0625,-2.71874 0.57275,-1.11418 1.03067,-2.40735 1.34375,-3.90627 0.34607,-1.65699 0.47241,-3.12065 0.375,-4.37494 -0.0975,-1.25408 -0.38688,-2.30516 -0.84375,-3.18751 -0.44761,-0.88044 -1.03928,-1.59432 -1.8125,-2.12501 -0.77326,-0.53068 -1.68212,-0.88377 -2.6875,-1.09374 -0.57717,-0.12058 -1.11723,-0.18663 -1.65625,-0.18751 z M 385,984.36221 c -0.48166,-0.003 -0.96371,0.032 -1.46874,0.12501 -1.15973,0.21373 -2.16272,0.61971 -3.00001,1.21875 -0.8373,0.59913 -1.49375,1.37413 -1.96875,2.31251 -0.47671,0.92914 -0.78836,2.00019 -0.90625,3.24992 -0.10851,1.24813 -0.0274,2.6505 0.25,4.15632 0.30499,1.6554 0.74762,3.03216 1.3125,4.15622 0.56488,1.12406 1.24144,2.00316 2,2.65626 0.75684,0.6438 1.58344,1.0826 2.5,1.2812 0.91656,0.199 1.86492,0.1862 2.875,0 1.16907,-0.2153 2.17205,-0.6214 3,-1.2188 0.82793,-0.5973 1.49202,-1.352 1.96875,-2.2811 0.48434,-0.9401 0.76646,-2.03314 0.875,-3.28127 0.10851,-1.24813 0.0274,-2.61917 -0.25,-4.12499 -0.30672,-1.66464 -0.74763,-3.0635 -1.3125,-4.18756 -0.56489,-1.12406 -1.21192,-2.01228 -1.96874,-2.65621 -0.74751,-0.64557 -1.58345,-1.05146 -2.50001,-1.25 -0.45827,-0.0994 -0.92459,-0.15308 -1.40625,-0.15626 z m -235.71875,1.21875 c 0.25614,-0.0168 0.52059,0.009 0.78125,0.0625 0.72611,0.15169 1.3127,0.50477 1.75,1.0625 0.44852,0.5503 0.74168,1.32286 0.875,2.31255 l -7.875,3.49997 c 0.0164,-0.17134 0.0295,-0.31049 0.0625,-0.46877 0.0349,-0.16751 0.0861,-0.3449 0.125,-0.53122 0.23721,-1.13575 0.51575,-2.11662 0.875,-2.90629 0.36854,-0.78754 0.77821,-1.42499 1.21875,-1.90624 0.44986,-0.47922 0.93621,-0.80145 1.43749,-0.96875 0.25162,-0.0883 0.49387,-0.13943 0.75001,-0.15625 z m 16.0625,0.3125 -6.34375,2.06245 0.625,2.99998 4.46875,-1.53122 L 162,1001.206 l -4.65624,-0.8125 -0.56251,3.0624 12.21876,2.125 0.56249,-3.0312 -4.03124,-0.7187 2.71874,-15.40628 -2.90625,-0.53126 z m 205.09375,1.06246 -2.90625,0.43754 -5.375,3.99996 1.5625,2.62501 3.75001,-2.90629 1.84374,11.84376 -4.71875,0.75 0.5,3.0312 12.25,-1.8749 -0.46875,-3.0626 -4.06249,0.6251 -2.37501,-15.46878 z m 13.90625,0.31251 c 0.52581,-0.0106 1.03814,0.11207 1.5,0.37497 0.62343,0.33971 1.18957,0.94699 1.6875,1.8125 l -5.96875,6.21877 c -0.0497,-0.16497 -0.0957,-0.30986 -0.125,-0.46877 -0.0309,-0.16836 -0.0593,-0.34416 -0.0937,-0.53122 -0.21016,-1.14106 -0.28367,-2.16431 -0.25,-3.03121 0.0431,-0.86869 0.14932,-1.60674 0.375,-2.2188 0.23503,-0.61387 0.56807,-1.09294 0.96875,-1.43753 0.39897,-0.35393 0.85124,-0.55958 1.375,-0.65625 0.18237,-0.034 0.35599,-0.0595 0.53126,-0.0627 z m -204.625,0.93753 c -0.53806,0.0319 -1.03859,0.13204 -1.53125,0.28118 -0.98532,0.29849 -1.8738,0.79519 -2.625,1.53132 -0.74983,0.72689 -1.36203,1.66665 -1.875,2.81249 -0.50356,1.14701 -0.87292,2.48489 -1.09375,3.99997 -0.24281,1.66569 -0.29901,3.12914 -0.12499,4.37508 0.174,1.2459 0.52261,2.2941 1.03124,3.1562 0.51,0.8529 1.1645,1.5176 1.96875,2 0.80424,0.4824 1.73365,0.7893 2.75,0.9375 1.1763,0.1714 2.24281,0.1124 3.21875,-0.1875 0.9759,-0.2997 1.84391,-0.8045 2.59375,-1.5313 0.76061,-0.7349 1.40267,-1.6653 1.90625,-2.8125 0.50354,-1.1471 0.84166,-2.485 1.0625,-3.99996 0.24413,-1.67515 0.29898,-3.12925 0.125,-4.37504 -0.17402,-1.2459 -0.52126,-2.30336 -1.03125,-3.15623 -0.5006,-0.85139 -1.16452,-1.51752 -1.96874,-1.99998 -0.80427,-0.48237 -1.70242,-0.78946 -2.71876,-0.93754 -0.58346,-0.085 -1.14944,-0.12587 -1.6875,-0.0935 z m 173.8125,1 c -0.24754,0.0106 -0.49528,0.0297 -0.75,0.0627 -1.16984,0.14861 -2.19309,0.47981 -3.0625,1.03122 -0.86942,0.55141 -1.56712,1.30836 -2.09374,2.2188 -0.52782,0.9011 -0.90636,1.94613 -1.09376,3.18746 -0.17795,1.24006 -0.16172,2.63733 0.0312,4.15633 0.21215,1.66983 0.56121,3.06483 1.0625,4.21863 0.50128,1.1537 1.12281,2.0868 1.84375,2.7813 0.71974,0.685 1.53345,1.1569 2.4375,1.4063 0.90407,0.25 1.8561,0.3174 2.875,0.1875 1.17928,-0.1498 2.2025,-0.5124 3.0625,-1.0626 0.85997,-0.5502 1.56591,-1.2864 2.09376,-2.1875 0.53603,-0.9117 0.88451,-1.9786 1.06249,-3.2187 0.17795,-1.2401 0.16171,-2.60613 -0.0312,-4.12502 -0.21336,-1.67929 -0.56122,-3.09611 -1.06249,-4.24991 -0.50131,-1.1538 -1.12402,-2.09612 -1.84376,-2.78126 -0.71032,-0.68621 -1.50221,-1.12565 -2.40625,-1.37507 -0.67806,-0.18748 -1.38236,-0.27629 -2.125,-0.24994 z m -157.5625,1.03122 c -0.84193,-0.0159 -1.64265,0.0988 -2.375,0.34374 -0.97647,0.32642 -1.83249,0.86774 -2.56249,1.62501 -0.72892,0.74782 -1.33226,1.7153 -1.81251,2.87505 -0.47083,1.16103 -0.791,2.47927 -0.96875,3.99997 -0.19539,1.67195 -0.17802,3.13445 0.0312,4.37495 0.20926,1.2405 0.56085,2.2776 1.09374,3.125 0.53399,0.838 1.21365,1.5093 2.03126,1.9687 0.81761,0.4595 1.7611,0.7558 2.78124,0.8751 1.1807,0.138 2.25172,0.015 3.21876,-0.3125 0.96699,-0.3274 1.80232,-0.8461 2.53125,-1.5938 0.73945,-0.7562 1.34167,-1.7139 1.81249,-2.8749 0.47081,-1.1608 0.79097,-2.5105 0.96875,-4.0313 0.19652,-1.68124 0.20928,-3.13449 0,-4.37497 -0.20929,-1.24038 -0.59103,-2.287 -1.125,-3.125 -0.52457,-0.83683 -1.1824,-1.4781 -1.99999,-1.93752 -0.81763,-0.45942 -1.76113,-0.75578 -2.78125,-0.87507 -0.29283,-0.034 -0.56312,-0.0574 -0.84376,-0.0627 z m -15.59375,0.78127 c 0.12953,9.6e-4 0.2745,0.0117 0.40625,0.0308 0.73402,0.10697 1.34191,0.4387 1.8125,0.96865 0.48133,0.52188 0.80641,1.27044 1,2.25004 l -7.625,3.99996 c 0.006,-0.17219 0.008,-0.33991 0.0312,-0.49999 0.0245,-0.16932 0.0351,-0.343 0.0625,-0.53123 0.16733,-1.14817 0.40846,-2.12745 0.71875,-2.93751 0.31969,-0.80879 0.68344,-1.49266 1.09375,-1.99999 0.41969,-0.50583 0.88488,-0.83353 1.375,-1.03122 0.36862,-0.1553 0.73642,-0.2544 1.125,-0.25005 z m 159.15625,0 -2.93749,0.28128 -5.56251,3.68746 1.40625,2.71869 3.90625,-2.68746 1.18751,11.93758 -4.71875,0.4687 0.3125,3.0625 12.34374,-1.2187 -0.3125,-3.0938 -4.0625,0.4062 -1.5625,-15.56245 z m -127.90625,0.99999 -6.1875,2.59378 0.875,2.93751 4.34375,-1.90629 -1.0625,11.93756 -4.75,-0.4376 -0.28125,3.0938 12.375,1.0937 0.28125,-3.0624 -4.09375,-0.3751 1.40625,-15.59367 -2.90625,-0.28129 z m 141.8125,0.0627 c 0.52554,0.0191 1.02228,0.18036 1.46875,0.46876 0.6035,0.3738 1.14488,1.01433 1.59375,1.9063 l -6.3125,5.8749 c -0.0405,-0.1674 -0.0734,-0.33969 -0.0937,-0.49998 -0.0216,-0.16985 -0.0385,-0.34257 -0.0625,-0.53122 -0.14617,-1.15105 -0.17576,-2.16761 -0.0937,-3.03121 0.0914,-0.86477 0.27176,-1.589 0.53125,-2.18757 0.26891,-0.59974 0.61196,-1.05332 1.03125,-1.37496 0.41808,-0.3311 0.87792,-0.52687 1.40624,-0.59379 0.18396,-0.0234 0.35608,-0.0382 0.53126,-0.0308 z m -200.90625,0.0627 c -0.0311,0.14892 -0.068,0.29923 -0.0937,0.46876 -0.0238,0.16019 -0.0608,0.34173 -0.0937,0.5 -0.2353,1.1264 -0.51383,2.07604 -0.87499,2.87495 -0.35926,0.78967 -0.76892,1.42701 -1.21876,1.90629 -0.43861,0.47195 -0.92498,0.79402 -1.4375,0.96876 -0.50327,0.17527 -1.00995,0.20247 -1.53125,0.0935 -0.7168,-0.14978 -1.30147,-0.48119 -1.75,-1.03133 -0.44854,-0.55034 -0.73451,-1.31611 -0.84375,-2.28126 l 7.84375,-3.49997 z m 169.1875,0.24994 c -1.17588,0.0892 -2.22875,0.39962 -3.125,0.90631 -0.89625,0.50668 -1.61541,1.21105 -2.1875,2.09367 -0.5728,0.87326 -0.99991,1.92626 -1.24999,3.15633 -0.24065,1.22954 -0.30321,2.59821 -0.18751,4.12491 0.12723,1.6785 0.43285,3.1037 0.875,4.2813 0.44215,1.1778 1.0027,2.1448 1.6875,2.8749 0.68409,0.7206 1.45349,1.205 2.34376,1.5 0.89024,0.2951 1.85082,0.4213 2.875,0.3438 1.18532,-0.09 2.23821,-0.4002 3.125,-0.9062 0.88675,-0.5059 1.61466,-1.1895 2.18749,-2.0626 0.58155,-0.8835 0.97814,-1.9268 1.21875,-3.1562 0.24064,-1.2296 0.3032,-2.6295 0.1875,-4.1562 -0.12796,-1.68789 -0.4016,-3.10343 -0.84375,-4.28124 -0.44215,-1.17759 -1.00343,-2.12309 -1.6875,-2.84371 -0.67462,-0.72126 -1.4535,-1.23634 -2.34375,-1.53133 -0.89025,-0.29509 -1.85085,-0.42128 -2.875,-0.34374 z m 66.84376,0 c 0.0275,0.14967 0.0534,0.33344 0.0937,0.5 0.0388,0.15732 0.0644,0.30985 0.0937,0.46876 0.20845,1.13171 0.31322,2.12374 0.28125,2.99998 -0.0337,0.86678 -0.17122,1.60493 -0.40625,2.2188 -0.2274,0.60272 -0.56045,1.08189 -0.96875,1.43748 -0.39896,0.3538 -0.85125,0.5908 -1.375,0.6875 -0.72014,0.1327 -1.37658,0.028 -2,-0.3125 -0.62345,-0.3396 -1.18984,-0.92923 -1.65625,-1.78125 l 5.9375,-6.21877 z M 227,993.04998 c -0.84159,0.0287 -1.62536,0.18568 -2.34375,0.46877 -0.95786,0.37752 -1.77977,0.9865 -2.46875,1.78127 -0.68839,0.78531 -1.23794,1.75407 -1.65625,2.93751 -0.40881,1.18429 -0.65281,2.53437 -0.75,4.06247 -0.10681,1.6798 -0.0245,3.1475 0.25001,4.375 0.27453,1.2277 0.70431,2.2445 1.28124,3.0625 0.57752,0.8086 1.28426,1.4282 2.125,1.8438 0.84074,0.4156 1.78749,0.6528 2.8125,0.7187 1.18635,0.075 2.23912,-0.09 3.1875,-0.4688 0.94836,-0.378 1.78037,-0.9334 2.46875,-1.7187 0.69847,-0.794 1.24743,-1.7846 1.65626,-2.9687 0.40879,-1.1843 0.6528,-2.5659 0.74999,-4.0938 0.10738,-1.6894 0.0245,-3.14741 -0.25,-4.37504 -0.27455,-1.22773 -0.70374,-2.22263 -1.28125,-3.0312 -0.56804,-0.80783 -1.25303,-1.42818 -2.09375,-1.84373 -0.84076,-0.41555 -1.7875,-0.65296 -2.8125,-0.71882 -0.29421,-0.0191 -0.59447,-0.0404 -0.875,-0.0308 z m -31.125,0.0308 c 0.12952,0 0.274,-0.0159 0.40625,0 0.73675,0.086 1.35833,0.38984 1.84375,0.90619 0.49596,0.50797 0.84118,1.27628 1.0625,2.25004 l -7.53125,4.18759 c 9.6e-4,-0.1723 0.0125,-0.3396 0.0312,-0.50003 0.02,-0.17007 0.0404,-0.34236 0.0625,-0.53133 0.13469,-1.15232 0.33782,-2.15019 0.625,-2.96875 0.29662,-0.8175 0.66674,-1.48129 1.0625,-1.99998 0.40517,-0.51752 0.82818,-0.88229 1.3125,-1.09379 0.36407,-0.16454 0.73645,-0.24314 1.12501,-0.24994 z m 112.46875,0.4062 -2.90625,0.15625 -5.75,3.43751 1.28125,2.75003 4,-2.46875 0.625,11.96878 -4.75,0.2187 0.15626,3.0938 12.40624,-0.625 -0.15625,-3.0938 -4.09375,0.2188 -0.8125,-15.65632 z m -65.71875,0.37508 c -0.84062,0.0499 -1.63256,0.2305 -2.34375,0.53122 -0.94826,0.401 -1.73708,1.00095 -2.40625,1.8125 -0.66879,0.80209 -1.20478,1.80655 -1.59375,3.00008 -0.37947,1.19384 -0.59676,2.56384 -0.65625,4.09374 -0.0653,1.682 0.039,3.1232 0.34375,4.3437 0.30473,1.2205 0.74683,2.2278 1.34375,3.0312 0.59731,0.7942 1.33676,1.3866 2.1875,1.7813 0.85074,0.3946 1.7862,0.617 2.8125,0.6563 1.18785,0.046 2.24875,-0.1298 3.1875,-0.5313 0.93875,-0.4013 1.73743,-0.9791 2.40625,-1.7812 0.67865,-0.8112 1.21426,-1.8372 1.59375,-3.0312 0.37945,-1.194 0.59676,-2.5326 0.65625,-4.0626 0.0657,-1.6914 -0.039,-3.1545 -0.34375,-4.37502 -0.30474,-1.22041 -0.77772,-2.23708 -1.375,-3.03121 -0.58781,-0.7937 -1.30552,-1.38654 -2.15625,-1.78126 -0.85075,-0.39473 -1.78621,-0.61695 -2.8125,-0.65625 -0.29459,-0.0117 -0.56354,-0.017 -0.84375,0 z m 47.8125,0.18748 c -1.17873,0.0351 -2.20627,0.28542 -3.125,0.75005 -0.91874,0.46462 -1.70016,1.11354 -2.3125,1.96875 -0.61261,0.84575 -1.06824,1.87666 -1.375,3.09377 -0.29729,1.21709 -0.41993,2.59439 -0.375,4.12499 0.0494,1.6825 0.26907,3.1156 0.65625,4.3125 0.38716,1.1969 0.91222,2.1764 1.5625,2.9375 0.65,0.7515 1.40559,1.2891 2.28126,1.625 0.87562,0.3358 1.81709,0.4984 2.84375,0.4688 1.18823,-0.035 2.24701,-0.2857 3.15625,-0.7501 0.90922,-0.4643 1.66862,-1.123 2.28124,-1.9687 0.62182,-0.8555 1.07773,-1.8767 1.375,-3.0938 0.29721,-1.2169 0.41994,-2.5944 0.375,-4.125 -0.0497,-1.692 -0.26909,-3.1468 -0.65625,-4.3437 -0.38719,-1.19703 -0.91252,-2.15475 -1.5625,-2.90628 -0.64052,-0.75175 -1.37437,-1.28935 -2.25,-1.62501 -0.87567,-0.33588 -1.84837,-0.49851 -2.875,-0.46877 z m -32,0.43754 -5.96874,3.0312 1.09374,2.84382 4.15625,-2.2188 -0.18749,11.9688 -4.71876,-0.063 -0.0625,3.0937 12.40624,0.1876 0.0625,-3.0938 -4.09375,-0.063 0.21875,-15.65621 -2.90625,-0.0308 z m 63.28125,0.74994 c 0.73965,-0.0563 1.39371,0.14839 1.96876,0.56256 0.58375,0.40407 1.06567,1.05523 1.46874,1.96875 l -6.59375,5.56257 c -0.0319,-0.1693 -0.0506,-0.3388 -0.0625,-0.5 -0.013,-0.1707 -0.0166,-0.3417 -0.0312,-0.5314 -0.0877,-1.1569 -0.0632,-2.1728 0.0625,-3.03118 0.13517,-0.85903 0.33551,-1.57148 0.625,-2.15624 0.29897,-0.5854 0.6587,-1.04376 1.09375,-1.34373 0.43433,-0.30954 0.93771,-0.49086 1.46874,-0.53133 z m -94.625,0.65625 c 0.12922,-0.0106 0.24213,-0.0106 0.375,0 0.74028,0.0467 1.36298,0.3226 1.875,0.8125 0.5221,0.4812 0.9463,1.19566 1.21875,2.15635 l -7.3125,4.59368 c -0.008,-0.172 -0.0106,-0.3387 0,-0.5 0.0108,-0.1708 0.0192,-0.3414 0.0312,-0.5312 0.0736,-1.1579 0.25647,-2.1674 0.49999,-3.00003 0.25301,-0.83194 0.53846,-1.52367 0.90625,-2.06255 0.37727,-0.53823 0.80878,-0.91947 1.28125,-1.15624 0.35478,-0.18409 0.73734,-0.28511 1.125,-0.31251 z m 15.65625,0.8125 c 0.12896,-0.0117 0.27321,0 0.40625,0 0.74122,0.0287 1.38229,0.27289 1.90625,0.75005 0.53381,0.46813 0.92268,1.17133 1.21875,2.12501 l -7.15625,4.78127 c -0.0128,-0.1718 -0.0376,-0.3384 -0.0312,-0.5 0.007,-0.1711 0.0238,-0.3412 0.0312,-0.5312 0.045,-1.1595 0.18335,-2.1617 0.40625,-3.0001 0.2324,-0.83803 0.52063,-1.54591 0.875,-2.0937 0.36388,-0.54737 0.78352,-0.93923 1.25,-1.18759 0.35012,-0.19354 0.70687,-0.30698 1.09375,-0.34374 z m 47.5625,0.1876 c 0.74145,-0.0223 1.38226,0.18451 1.9375,0.62491 0.56445,0.43063 1.0459,1.10005 1.40625,2.03132 l -6.84374,5.25 c -0.024,-0.1706 -0.0259,-0.3383 -0.0312,-0.5 -0.004,-0.171 -0.0259,-0.3412 -0.0312,-0.5313 -0.0341,-1.1597 0.0222,-2.1483 0.1875,-3 0.17477,-0.85191 0.43375,-1.5856 0.75,-2.15623 0.32574,-0.57085 0.70778,-1.00159 1.15625,-1.28128 0.44819,-0.28903 0.93649,-0.41629 1.46875,-0.43742 z m -106.6875,0.49999 c -0.0219,0.15063 -0.0472,0.32919 -0.0625,0.5 -0.0139,0.16146 -0.009,0.30858 -0.0312,0.46866 -0.16596,1.13861 -0.40711,2.11788 -0.71875,2.93748 -0.31029,0.8101 -0.67404,1.4628 -1.09375,1.9688 -0.40892,0.4978 -0.87412,0.8569 -1.375,1.0625 -0.49151,0.2072 -1.00426,0.264 -1.53125,0.1875 -0.72463,-0.1062 -1.33115,-0.4157 -1.8125,-0.9375 -0.48136,-0.5218 -0.80066,-1.2619 -0.96875,-2.2187 l 7.59375,-3.96874 z m 173.71875,0.0627 c 0.0192,0.15084 0.0627,0.30019 0.0937,0.46877 0.0298,0.15923 0.0421,0.30837 0.0625,0.46876 0.145,1.14149 0.17459,2.15811 0.0937,3.03121 -0.082,0.8636 -0.23109,1.5877 -0.5,2.1874 -0.26069,0.5893 -0.63499,1.074 -1.06251,1.4063 -0.41808,0.3311 -0.87795,0.5269 -1.40624,0.5938 -0.72645,0.092 -1.39651,-0.064 -2.00001,-0.4375 -0.60353,-0.3739 -1.11309,-0.9983 -1.53124,-1.875 l 6.24999,-5.84374 z m -158.03125,1.9063 c -0.0176,0.15115 -0.0206,0.29753 -0.0312,0.46866 -0.008,0.16167 -0.0437,0.33948 -0.0625,0.49998 -0.13359,1.1431 -0.33674,2.1095 -0.625,2.9375 -0.2872,0.8186 -0.62606,1.4826 -1.03124,2 -0.39465,0.5093 -0.84891,0.874 -1.34376,1.0938 -0.48544,0.2195 -1.0023,0.3127 -1.53125,0.25 -0.72733,-0.085 -1.31653,-0.3671 -1.8125,-0.875 -0.49597,-0.5081 -0.83608,-1.236 -1.03125,-2.1875 l 7.4687,-4.18744 z m 126.56251,1.46864 c 0.0115,0.1518 0.04,0.2988 0.0625,0.4688 0.0218,0.1605 0.0193,0.3075 0.0312,0.4687 0.087,1.1476 0.0937,2.1634 -0.0312,3.0313 -0.12568,0.8583 -0.35728,1.5709 -0.65626,2.1563 -0.2902,0.5751 -0.64994,1.0335 -1.09374,1.3437 -0.43433,0.3094 -0.90647,0.4909 -1.4375,0.5312 -0.73018,0.055 -1.38498,-0.1271 -1.96875,-0.5312 -0.5838,-0.404 -1.06434,-1.0407 -1.4375,-1.9375 l 6.53125,-5.5313 z m -95.03126,1.1563 c -0.0106,0.1519 -0.0302,0.2973 -0.0312,0.4687 -7.4e-4,0.162 0.0106,0.3386 0,0.5 -0.073,1.1483 -0.22464,2.1266 -0.46875,2.9687 -0.24352,0.8326 -0.56024,1.5242 -0.93751,2.0626 -0.36718,0.5293 -0.7987,0.9106 -1.28124,1.1562 -0.47309,0.2455 -0.96851,0.3778 -1.5,0.3438 -0.7308,-0.047 -1.3529,-0.3314 -1.875,-0.8125 -0.52213,-0.481 -0.91109,-1.1852 -1.15625,-2.125 l 7.25,-4.5625 z m 63.375,0.6563 c 0.005,0.152 0.0167,0.2977 0.0312,0.4686 0.0148,0.1613 0.0259,0.3386 0.0312,0.5 0.0338,1.1503 -0.0225,2.139 -0.1875,3.0001 -0.16528,0.8516 -0.42425,1.5854 -0.75,2.1563 -0.31651,0.5611 -0.69856,0.9919 -1.15625,1.2812 -0.4482,0.2891 -0.93653,0.4162 -1.46874,0.4375 -0.73197,0.021 -1.37305,-0.1632 -1.9375,-0.5937 -0.56448,-0.4307 -1.01249,-1.1182 -1.34376,-2.0313 l 6.78126,-5.2187 z m -47.5625,0.063 c -0.006,0.1521 -0.003,0.2973 0,0.4687 0.003,0.1619 0.006,0.3385 0,0.5 -0.0447,1.1499 -0.18299,2.1521 -0.40625,3 -0.22291,0.8384 -0.51114,1.5151 -0.875,2.0625 -0.35401,0.5383 -0.77366,0.93 -1.25,1.1875 -0.46683,0.2581 -0.96786,0.3952 -1.5,0.375 -0.73173,-0.029 -1.37244,-0.282 -1.90625,-0.7499 -0.53383,-0.4682 -0.91921,-1.1602 -1.1875,-2.0938 l 7.125,-4.75 z"
         style="font-size:26px;font-style:normal;font-variant:normal;font-weight:bold;font-stretch:normal;line-height:125%;letter-spacing:0px;word-spacing:0px;fill:#4d4d4d;fill-opacity:1;stroke:none;font-family:Consolas;-inkscape-font-specification:Consolas Bold" />
    </g>
  </g>
</svg>
