<?xml version="1.0" encoding="UTF-8" standalone="no"?>
<!-- Created with Inkscape (http://www.inkscape.org/) -->

<svg
   xmlns:dc="http://purl.org/dc/elements/1.1/"
   xmlns:cc="http://creativecommons.org/ns#"
   xmlns:rdf="http://www.w3.org/1999/02/22-rdf-syntax-ns#"
   xmlns:svg="http://www.w3.org/2000/svg"
   xmlns="http://www.w3.org/2000/svg"
   xmlns:sodipodi="http://sodipodi.sourceforge.net/DTD/sodipodi-0.dtd"
   xmlns:inkscape="http://www.inkscape.org/namespaces/inkscape"
   width="542"
   height="268"
   id="svg2"
   version="1.1"
   inkscape:version="0.91 r13725"
   sodipodi:docname="ciub-new-logo-white.svg"
   inkscape:export-filename="/home/abdelhak/Activities/CIUB/ciub-new-logo.png"
   inkscape:export-xdpi="90"
   inkscape:export-ydpi="90">
  <defs
     id="defs4">
    <clipPath
       id="clipPath3691"
       clipPathUnits="userSpaceOnUse">
      <path
         id="path3693"
         d="m 743,306 0,145 291,0 0,-145 -291,0 z"
         inkscape:connector-curvature="0" />
    </clipPath>
    <clipPath
       id="clipPath3677"
       clipPathUnits="userSpaceOnUse">
      <path
         id="path3679"
         d="m 743,452 0,292 291,0 0,-292 -291,0 z"
         inkscape:connector-curvature="0" />
    </clipPath>
    <clipPath
       id="clipPath3663"
       clipPathUnits="userSpaceOnUse">
      <path
         id="path3665"
         d="m 745,740 0,43 289,0 0,-43 -289,0 z"
         inkscape:connector-curvature="0" />
    </clipPath>
    <clipPath
       id="clipPath3649"
       clipPathUnits="userSpaceOnUse">
      <path
         id="path3651"
         d="m 750,783 0,428 284,0 0,-428 -284,0 z"
         inkscape:connector-curvature="0" />
    </clipPath>
    <clipPath
       id="clipPath3633"
       clipPathUnits="userSpaceOnUse">
      <path
         id="path3635"
         d="m 561,198 0,63 183,0 0,-63 -183,0 z"
         inkscape:connector-curvature="0" />
    </clipPath>
    <clipPath
       id="clipPath3593"
       clipPathUnits="userSpaceOnUse">
      <path
         id="path3595"
         d="m 1540,114 0,67 145,0 0,-67 -145,0 z"
         inkscape:connector-curvature="0" />
    </clipPath>
    <clipPath
       id="clipPath3533"
       clipPathUnits="userSpaceOnUse">
      <path
         id="path3535"
         d="m 1540,2681 0,91 145,0 0,-91 -145,0 z"
         inkscape:connector-curvature="0" />
    </clipPath>
    <clipPath
       id="clipPath3501"
       clipPathUnits="userSpaceOnUse">
      <path
         id="path3503"
         d="m 1540,3482 0,97 145,0 0,-97 -145,0 z"
         inkscape:connector-curvature="0" />
    </clipPath>
    <clipPath
       id="clipPath3457"
       clipPathUnits="userSpaceOnUse">
      <path
         id="path3459"
         d="m 1540,5109 0,94 145,0 0,-94 -145,0 z"
         inkscape:connector-curvature="0" />
    </clipPath>
    <clipPath
       id="clipPath3017"
       clipPathUnits="userSpaceOnUse">
      <path
         id="path3019"
         d="m 2161,57 0,6543 972,0 0,-6543 -972,0 z"
         inkscape:connector-curvature="0" />
    </clipPath>
    <clipPath
       id="clipPath3005"
       clipPathUnits="userSpaceOnUse">
      <path
         id="path3007"
         d="m 1189,57 0,6543 972,0 0,-6543 -972,0 z"
         inkscape:connector-curvature="0" />
    </clipPath>
    <clipPath
       id="clipPath3005-7"
       clipPathUnits="userSpaceOnUse">
      <path
         inkscape:connector-curvature="0"
         id="path3007-8"
         d="m 1189,57 0,6543 972,0 0,-6543 -972,0 z" />
    </clipPath>
    <clipPath
       id="clipPath3005-7-2"
       clipPathUnits="userSpaceOnUse">
      <path
         inkscape:connector-curvature="0"
         id="path3007-8-4"
         d="m 1189,57 0,6543 972,0 0,-6543 -972,0 z" />
    </clipPath>
    <inkscape:perspective
       id="perspective14"
       inkscape:persp3d-origin="267.3215 : 174.17533 : 1"
       inkscape:vp_z="534.64301 : 261.263 : 1"
       inkscape:vp_y="0 : 1000 : 0"
       inkscape:vp_x="0 : 261.263 : 1"
       sodipodi:type="inkscape:persp3d" />
    <clipPath
       id="clipPath20"
       clipPathUnits="userSpaceOnUse">
      <path
         id="path22"
         d="M 0,2160 0,0 l 3240,0 0,2160 -3240,0 z"
         inkscape:connector-curvature="0" />
    </clipPath>
    <inkscape:perspective
       id="perspective10"
       inkscape:persp3d-origin="0.5 : 0.33333333 : 1"
       inkscape:vp_z="1 : 0.5 : 1"
       inkscape:vp_y="0 : 1000 : 0"
       inkscape:vp_x="0 : 0.5 : 1"
       sodipodi:type="inkscape:persp3d" />
    <path
       style="fill:none;stroke:#000000;stroke-width:1.42845714px;stroke-linecap:butt;stroke-linejoin:miter;stroke-opacity:1"
       d="m 198.9707,1256.6914 c 0,0 75.80531,67.6921 222.03069,67.6921 146.22539,0 221.04086,-67.6921 221.04086,-67.6921"
       id="path3155-6"
       inkscape:connector-curvature="0"
       inkscape:transform-center-y="-4.8818459"
       sodipodi:nodetypes="czc" />
    <path
       style="fill:none;stroke:#000000;stroke-width:1.49641824px;stroke-linecap:butt;stroke-linejoin:miter;stroke-opacity:1"
       d="m 177.27763,1236.1514 c 0,0 71.2527,67.6242 243.90483,67.6242 172.65213,0 242.8175,-67.6242 242.8175,-67.6242"
       id="path3155-0"
       inkscape:connector-curvature="0"
       inkscape:transform-center-y="-4.8769447"
       sodipodi:nodetypes="czc" />
    <inkscape:perspective
       id="perspective14-7"
       inkscape:persp3d-origin="267.3215 : 174.17533 : 1"
       inkscape:vp_z="534.64301 : 261.263 : 1"
       inkscape:vp_y="0 : 1000 : 0"
       inkscape:vp_x="0 : 261.263 : 1"
       sodipodi:type="inkscape:persp3d" />
  </defs>
  <sodipodi:namedview
     id="base"
     pagecolor="#ffffff"
     bordercolor="#666666"
     borderopacity="1.0"
     inkscape:pageopacity="0.0"
     inkscape:pageshadow="2"
     inkscape:zoom="1.6446887"
     inkscape:cx="316.79142"
     inkscape:cy="131.38069"
     inkscape:document-units="px"
     inkscape:current-layer="layer1"
     showgrid="false"
     showguides="true"
     inkscape:guide-bbox="true"
     inkscape:snap-center="true"
     inkscape:snap-object-midpoints="true"
     inkscape:snap-bbox="true"
     inkscape:bbox-nodes="true"
     inkscape:bbox-paths="true"
     inkscape:snap-bbox-midpoints="true"
     inkscape:snap-bbox-edge-midpoints="true"
     inkscape:window-width="1366"
     inkscape:window-height="709"
     inkscape:window-x="0"
     inkscape:window-y="27"
     inkscape:window-maximized="1"
     inkscape:object-nodes="true"
     inkscape:snap-smooth-nodes="true"
     inkscape:object-paths="true">
    <sodipodi:guide
       orientation="1,0"
       position="11.466014,255.56837"
       id="guide4887" />
    <sodipodi:guide
       orientation="1,0"
       position="534.36947,285.56837"
       id="guide4889" />
    <sodipodi:guide
       orientation="0,1"
       position="97.03041,236.37701"
       id="guide5228" />
    <sodipodi:guide
       orientation="0,1"
       position="530.36947,255.56837"
       id="guide5262" />
    <sodipodi:guide
       orientation="0,1"
       position="201.04399,77.15608"
       id="guide5268" />
    <sodipodi:guide
       orientation="0,1"
       position="283.24052,39.022882"
       id="guide5270" />
    <sodipodi:guide
       orientation="1,0"
       position="315.67129,91.12611"
       id="guide3841" />
    <sodipodi:guide
       orientation="0,1"
       position="201.04399,213.95295"
       id="guide3933" />
    <sodipodi:guide
       orientation="0,1"
       position="97.03041,100.94098"
       id="guide3935" />
  </sodipodi:namedview>
  <metadata
     id="metadata7">
    <rdf:RDF>
      <cc:Work
         rdf:about="">
        <dc:format>image/svg+xml</dc:format>
        <dc:type
           rdf:resource="http://purl.org/dc/dcmitype/StillImage" />
        <dc:title></dc:title>
      </cc:Work>
    </rdf:RDF>
  </metadata>
  <g
     inkscape:label="Layer 1"
     inkscape:groupmode="layer"
     id="layer1"
     transform="translate(0,-784.36218)">
    <flowRoot
       transform="translate(0,692.36218)"
       style="font-size:40px;font-style:normal;font-weight:normal;line-height:125%;letter-spacing:0px;word-spacing:0px;fill:#000000;fill-opacity:1;stroke:none;font-family:Sans"
       id="flowRoot3127"
       xml:space="preserve"><flowRegion
         id="flowRegion3129"><rect
           y="423.63962"
           x="-9.8994951"
           height="114.5513"
           width="476.58997"
           id="rect3131" /></flowRegion><flowPara
         id="flowPara3133" /></flowRoot>    <g
       id="g3971"
       transform="translate(-4,30)"
       style="fill:#ffffff">
      <path
         style="fill:#ffffff;fill-opacity:1;stroke:none"
         d="M 11.466797 12.431641 L 11.466797 154.47266 C 36.556379 179.75882 71.727459 194.0789 105.10938 205.49414 C 126.28015 212.21981 147.86039 217.41185 169.70703 221.26172 L 169.70703 12.431641 L 11.466797 12.431641 z M 184.11328 12.431641 L 184.11328 224.07031 C 200.45917 226.27275 216.92019 227.78761 233.44141 228.66406 L 233.44141 12.431641 L 184.11328 12.431641 z M 396.56055 12.431641 L 396.56055 216.41406 C 443.59884 206.13881 490.05517 189.14947 527.18359 157.89258 C 528.2675 156.92732 529.32368 155.91991 530.36914 154.9043 L 530.36914 12.431641 L 396.56055 12.431641 z M 248.5625 12.4375 L 248.5625 229.34375 C 292.33738 230.76078 336.33776 227.35179 379.3125 219.9375 C 380.26231 219.76117 381.20303 219.56025 382.15625 219.375 L 382.15625 12.4375 L 248.5625 12.4375 z M 97.03125 31.623047 C 101.78643 31.623157 106.39145 32.069507 110.84961 32.960938 C 115.30757 33.852688 119.23091 34.980666 122.61914 36.347656 C 126.00714 37.655596 129.30574 39.290533 132.51562 41.251953 C 135.72531 43.213693 138.40102 45.086171 140.54102 46.869141 C 142.68076 48.593151 144.79052 50.554656 146.87109 52.753906 C 148.95138 54.893896 150.4972 56.587808 151.50781 57.835938 C 152.51818 59.024897 153.52846 60.333386 154.53906 61.759766 L 143.30469 69.873047 C 141.69967 67.852027 140.3932 66.247554 139.38281 65.058594 C 138.37218 63.869844 136.29089 61.877774 133.14062 59.083984 C 130.04962 56.290294 126.98842 54.062967 123.95703 52.398438 C 120.92547 50.674858 116.97368 49.098565 112.09961 47.671875 C 107.2848 46.245395 102.26194 45.533203 97.03125 45.533203 C 89.482199 45.533203 82.288799 46.95943 75.453125 49.8125 C 68.617398 52.66578 62.732362 56.499863 57.798828 61.314453 C 52.865166 66.129263 48.941891 71.894578 46.029297 78.611328 C 43.176124 85.268798 41.75 92.281894 41.75 99.652344 C 41.75 106.96372 43.176124 113.94821 46.029297 120.60547 C 48.941891 127.26294 52.836728 133.02816 57.710938 137.90234 C 62.644483 142.71705 68.527564 146.55112 75.363281 149.4043 C 82.258376 152.25747 89.482189 153.68555 97.03125 153.68555 C 102.2025 153.68555 107.16455 153.00197 111.91992 151.63477 C 116.73451 150.26767 120.71675 148.69138 123.86719 146.9082 C 127.01745 145.12492 130.0502 142.95635 132.96289 140.40039 C 135.93483 137.84444 138.04461 135.82201 139.29297 134.33594 C 140.60054 132.85008 141.87858 131.24528 143.12695 129.52148 L 154.53906 136.92188 C 139.38152 157.01294 120.21307 167.05859 97.03125 167.05859 C 87.639513 167.05859 78.632547 165.27545 70.013672 161.70898 C 61.454134 158.14262 54.053756 153.35698 47.8125 147.35352 C 41.630644 141.34997 36.697039 134.18898 33.011719 125.86719 C 29.326389 117.48602 27.484375 108.68794 27.484375 99.474609 C 27.484375 90.261289 29.326379 81.463201 33.011719 73.082031 C 36.697039 64.700971 41.630644 57.479056 47.8125 51.416016 C 54.053756 45.353176 61.454134 40.539236 70.013672 36.972656 C 78.632547 33.406406 87.639513 31.623157 97.03125 31.623047 z M 315.67188 31.623047 L 336.23438 57.998047 L 315.67188 45.185547 L 295.14062 57.998047 L 315.67188 31.623047 z M 417.18359 31.623047 L 465.98633 31.623047 C 476.14621 31.623157 484.85607 34.978586 492.11328 41.691406 C 499.4308 48.343776 503.08975 56.358702 503.08984 65.732422 C 503.08975 70.691592 501.96994 75.378309 499.73242 79.792969 C 497.49473 84.147409 494.41135 87.865009 490.48047 90.949219 C 497.37467 94.456939 502.84643 99.325616 506.89844 105.55469 C 511.01068 111.72322 513.06826 118.5263 513.06836 125.96484 C 513.06826 133.52436 510.95194 140.48013 506.71875 146.83008 C 502.54579 153.18004 496.95065 158.13898 489.93555 161.70703 C 482.92022 165.2752 475.33024 167.05859 467.16602 167.05859 L 417.18359 167.05859 L 417.18359 31.623047 z M 431.60742 45.59375 L 431.60742 85.234375 L 465.44336 85.234375 C 472.03515 85.234375 477.50701 83.300278 481.86133 79.429688 C 486.27602 75.498878 488.48428 70.933462 488.48438 65.732422 L 488.48438 65.550781 C 488.48427 60.289411 486.24665 55.661492 481.77148 51.669922 C 477.35668 47.618122 471.9142 45.59386 465.44336 45.59375 L 431.60742 45.59375 z M 315.67188 49.591797 L 336.23438 75.966797 L 315.67188 63.154297 L 295.14062 75.966797 L 315.67188 49.591797 z M 201.04492 54.046875 L 215.4668 54.046875 L 215.4668 190.84375 L 201.04492 190.84375 L 201.04492 54.046875 z M 264.87109 54.046875 L 279.29492 54.046875 L 279.29492 137.32227 C 279.29487 148.38952 282.89315 157.76295 290.08984 165.44336 C 297.34693 173.06343 305.87468 176.87305 315.67188 176.87305 C 322.02177 176.87305 327.91843 175.18155 333.36133 171.79492 C 338.80411 168.34785 343.15804 163.56913 346.42383 157.46094 C 349.74993 151.35296 351.41201 144.63992 351.41211 137.32227 L 351.41211 54.046875 L 365.83594 54.046875 L 365.83594 137.32227 C 365.83584 146.93808 363.59819 155.85928 359.12305 164.08398 C 354.6477 172.30868 348.51031 178.83977 340.70898 183.67773 C 332.96798 188.45536 324.46955 190.84375 315.2168 190.84375 C 308.3225 190.84375 301.73091 189.42242 295.44141 186.58008 C 289.21237 183.73774 283.85994 179.92791 279.38477 175.15039 C 274.96997 170.31221 271.43239 164.5978 268.77148 158.00586 C 266.17098 151.41404 264.87109 144.51904 264.87109 137.32227 L 264.87109 54.046875 z M 315.67188 67.560547 L 336.23438 93.935547 L 315.67188 81.123047 L 295.14062 93.935547 L 315.67188 67.560547 z M 315.67188 85.529297 L 336.23438 111.9043 L 315.67188 99.091797 L 295.14062 111.9043 L 315.67188 85.529297 z M 431.60742 99.023438 L 431.60742 153.08984 L 467.16602 153.08984 C 476.05595 153.08984 483.52459 150.39809 489.57227 145.01562 C 495.61976 139.63328 498.64444 133.28239 498.64453 125.96484 C 498.64444 118.64729 495.61976 112.32778 489.57227 107.00586 C 483.52459 101.68405 476.05595 99.023438 467.16602 99.023438 L 431.60742 99.023438 z M 525.5625 175 C 525.09658 174.9771 524.64641 175.0286 524.1875 175.125 C 523.26969 175.31779 522.37741 175.69912 521.53125 176.28125 C 520.55974 176.94972 519.83236 177.73631 519.3125 178.625 C 518.79266 179.51368 518.48805 180.48067 518.4375 181.53125 C 518.3815 182.57407 518.56622 183.68593 518.96875 184.875 C 519.37913 186.05864 520.00714 187.26988 520.875 188.53125 C 521.82912 189.91802 522.80678 191.01689 523.78125 191.8125 C 524.75573 192.60799 525.72838 193.15082 526.6875 193.4375 C 527.64122 193.71631 528.55092 193.75529 529.46875 193.5625 C 530.38654 193.36971 531.27884 192.98836 532.125 192.40625 C 533.10435 191.73246 533.86298 190.94587 534.375 190.0625 C 534.887 189.17924 535.16277 188.23032 535.21875 187.1875 C 535.27715 186.1315 535.09785 184.99626 534.6875 183.8125 C 534.27712 182.62886 533.6491 181.41773 532.78125 180.15625 C 531.82175 178.76171 530.84947 177.67049 529.875 176.875 C 528.90052 176.07939 527.92247 175.5289 526.96875 175.25 C 526.49581 175.1079 526.02842 175.02285 525.5625 175 z M 16.6875 176.34375 C 16.182491 176.36255 15.662367 176.4508 15.15625 176.59375 C 14.14971 176.87198 13.155797 177.39679 12.15625 178.15625 C 11.164292 178.92141 10.201525 179.90128 9.28125 181.125 C 8.269516 182.4703 7.538468 183.72944 7.09375 184.90625 C 6.64903 186.08294 6.467088 187.18699 6.5 188.1875 C 6.53863 189.18038 6.775566 190.06608 7.25 190.875 C 7.724436 191.68402 8.366642 192.41387 9.1875 193.03125 C 10.137555 193.7457 11.124805 194.20136 12.125 194.40625 C 13.125184 194.61117 14.118461 194.5596 15.125 194.28125 C 16.144834 194.00106 17.164293 193.4839 18.15625 192.71875 C 19.148197 191.9536 20.110953 190.97372 21.03125 189.75 C 22.048688 188.39706 22.77401 187.11431 23.21875 185.9375 C 23.663448 184.7608 23.851112 183.68037 23.8125 182.6875 C 23.78144 181.70033 23.536913 180.80892 23.0625 180 C 22.588043 179.19098 21.945837 178.46111 21.125 177.84375 C 20.182524 177.13498 19.195261 176.67924 18.1875 176.46875 C 17.683595 176.36338 17.192507 176.32496 16.6875 176.34375 z M 524.4375 178.21875 C 524.60793 178.20535 524.76117 178.20145 524.9375 178.21875 C 525.64526 178.27425 526.41088 178.60057 527.21875 179.1875 L 524.3125 187.3125 C 524.19981 187.18229 524.12292 187.03944 524.03125 186.90625 C 523.93425 186.76519 523.82658 186.62546 523.71875 186.46875 C 523.06112 185.51295 522.57307 184.61766 522.25 183.8125 C 521.93478 183.00203 521.73137 182.2759 521.6875 181.625 C 521.6515 180.96865 521.7436 180.41566 521.96875 179.9375 C 522.18851 179.45158 522.53001 179.05191 522.96875 178.75 C 523.42709 178.43464 523.92617 178.25881 524.4375 178.21875 z M 17.40625 179.40625 C 17.54284 179.40225 17.681282 179.4223 17.8125 179.4375 C 18.343082 179.4914 18.824358 179.67985 19.25 180 C 19.842819 180.44588 20.216121 180.99688 20.375 181.6875 C 20.54715 182.37629 20.487348 183.20383 20.1875 184.15625 L 11.5625 184 C 11.65018 183.85175 11.746542 183.72297 11.84375 183.59375 C 11.946631 183.45702 12.041916 183.30825 12.15625 183.15625 C 12.853597 182.22903 13.526753 181.46835 14.1875 180.90625 C 14.855827 180.34987 15.521718 179.96712 16.125 179.71875 C 16.583167 179.53841 16.996481 179.4177 17.40625 179.40625 z M 529.375 181.46875 C 529.4613 181.59417 529.55141 181.70811 529.65625 181.84375 C 529.75575 181.97151 529.84583 182.11681 529.9375 182.25 C 530.58972 183.19804 531.0778 184.06208 531.40625 184.875 C 531.72931 185.68005 531.93285 186.40627 531.96875 187.0625 C 532.00725 187.70563 531.91504 188.29002 531.6875 188.78125 C 531.46773 189.26729 531.12624 189.66684 530.6875 189.96875 C 530.08423 190.38414 529.42651 190.55555 528.71875 190.5 C 528.01099 190.4443 527.27359 190.11869 526.5 189.53125 L 529.375 181.46875 z M 511.03125 183.3125 L 508.53125 184.8125 L 505.0625 190.53125 L 507.5 192.375 L 509.875 188.3125 L 516 198.59375 L 511.9375 201.03125 L 513.53125 203.6875 L 524.1875 197.34375 L 522.59375 194.6875 L 519.0625 196.78125 L 511.03125 183.3125 z M 25.71875 185.25 L 25.1875 188.25 L 29.90625 188.5 L 23.59375 198.6875 L 19.53125 196.15625 L 17.90625 198.8125 L 28.4375 205.34375 L 30.09375 202.71875 L 26.59375 200.5625 L 34.875 187.25 L 32.40625 185.71875 L 25.71875 185.25 z M 10.15625 186.78125 L 18.71875 186.9375 C 18.62727 187.05909 18.532783 187.16994 18.4375 187.3125 C 18.3479 187.44742 18.253456 187.58954 18.15625 187.71875 C 17.464596 188.63833 16.791441 189.39903 16.125 189.96875 C 15.464255 190.53096 14.829601 190.91369 14.21875 191.15625 C 13.621185 191.39646 13.038186 191.49729 12.5 191.4375 C 11.969407 191.3836 11.488119 191.19516 11.0625 190.875 C 10.477247 190.43482 10.109671 189.87618 9.9375 189.1875 C 9.765327 188.4987 9.845 187.70141 10.15625 186.78125 z M 499.35352 190.79492 C 499.12266 190.78568 498.8898 190.79194 498.65625 190.8125 C 497.72206 190.8951 496.78423 191.17863 495.875 191.65625 C 494.83107 192.20479 493.99657 192.89799 493.375 193.71875 C 492.75343 194.53951 492.36231 195.46276 492.1875 196.5 C 492.00826 197.52878 492.05382 198.64666 492.3125 199.875 C 492.5796 201.09902 493.06912 202.39465 493.78125 203.75 C 494.56415 205.24015 495.37678 206.43818 496.25 207.34375 C 497.12325 208.24932 498.01916 208.91415 498.9375 209.3125 C 499.85144 209.70305 500.78454 209.83232 501.71875 209.75 C 502.65292 209.6674 503.59077 209.41524 504.5 208.9375 C 505.55235 208.38454 506.35558 207.69133 506.96875 206.875 C 507.58191 206.05877 507.97701 205.12254 508.15625 204.09375 C 508.33948 203.0521 508.29833 201.94278 508.03125 200.71875 C 507.76415 199.49472 507.27461 198.19922 506.5625 196.84375 C 505.77517 195.34525 504.96698 194.12432 504.09375 193.21875 C 503.22049 192.31318 502.32016 191.67124 501.40625 191.28125 C 500.72711 190.98511 500.0461 190.82265 499.35352 190.79492 z M 42.125 192.4375 C 41.367157 192.4869 40.655921 192.67405 39.9375 193 C 38.984101 193.42605 38.061795 194.09922 37.1875 195 C 36.321549 195.90537 35.507542 197.02717 34.78125 198.375 C 33.982766 199.85688 33.450642 201.20735 33.1875 202.4375 C 32.924391 203.66762 32.911106 204.76584 33.09375 205.75 C 33.280885 206.72588 33.659571 207.58382 34.25 208.3125 C 34.840417 209.04107 35.595818 209.63772 36.5 210.125 C 37.546479 210.6889 38.574152 211.01034 39.59375 211.0625 C 40.613342 211.115 41.60909 210.92607 42.5625 210.5 C 43.528762 210.06999 44.415298 209.40536 45.28125 208.5 C 46.147168 207.59464 46.961176 206.47284 47.6875 205.125 C 48.49046 203.63472 49.018074 202.2614 49.28125 201.03125 C 49.544438 199.80113 49.593374 198.69464 49.40625 197.71875 C 49.227459 196.74742 48.840407 195.91617 48.25 195.1875 C 47.659561 194.45893 46.904159 193.83102 46 193.34375 C 44.961865 192.78442 43.934187 192.49401 42.90625 192.4375 C 42.649255 192.4233 42.377615 192.421 42.125 192.4375 z M 498.53125 193.90625 C 498.70208 193.91325 498.8582 193.93085 499.03125 193.96875 C 499.72742 194.10785 500.45496 194.5401 501.1875 195.21875 L 497.34375 202.9375 C 497.24725 202.79485 497.16896 202.64316 497.09375 202.5 C 497.01415 202.34851 496.93223 202.19967 496.84375 202.03125 C 496.30412 201.00416 495.9128 200.0566 495.6875 199.21875 C 495.47073 198.37669 495.37258 197.62029 495.40625 196.96875 C 495.44835 196.31289 495.62601 195.76053 495.90625 195.3125 C 496.18209 194.85601 496.52855 194.5289 497 194.28125 C 497.4925 194.02219 498.01878 193.88536 498.53125 193.90625 z M 42.96875 195.40625 C 43.501417 195.37995 43.999908 195.49755 44.46875 195.75 C 45.12175 196.10185 45.58307 196.62228 45.84375 197.28125 C 46.117287 197.93639 46.184821 198.73204 46.03125 199.71875 L 37.46875 200.875 C 37.5332 200.71525 37.610764 200.54858 37.6875 200.40625 C 37.76869 200.25552 37.847284 200.10491 37.9375 199.9375 C 38.487859 198.91608 39.056046 198.06106 39.625 197.40625 C 40.202282 196.75577 40.753313 196.27353 41.3125 195.9375 C 41.880039 195.60592 42.440627 195.42718 42.96875 195.40625 z M 485.09375 197.6875 C 484.15665 197.725 483.21245 197.94168 482.28125 198.375 C 481.2121 198.87252 480.3479 199.52273 479.6875 200.3125 C 479.02706 201.10238 478.59963 202.00367 478.375 203.03125 C 478.14641 204.05024 478.11335 205.19808 478.3125 206.4375 C 478.52028 207.67296 478.9478 208.98686 479.59375 210.375 C 480.30391 211.9011 481.07767 213.14723 481.90625 214.09375 C 482.73482 215.04035 483.60193 215.71404 484.5 216.15625 C 485.39405 216.58988 486.3129 216.78739 487.25 216.75 C 488.18708 216.7126 489.10005 216.49581 490.03125 216.0625 C 491.10902 215.561 491.97319 214.91079 492.625 214.125 C 493.27679 213.33921 493.74011 212.42514 493.96875 211.40625 C 494.2019 210.37469 494.20781 209.23557 494 208 C 493.79222 206.76466 493.3647 205.45063 492.71875 204.0625 C 492.00457 202.52769 491.23481 201.29027 490.40625 200.34375 C 489.57767 199.39714 488.70654 198.71488 487.8125 198.28125 C 486.92706 197.84364 486.03083 197.6501 485.09375 197.6875 z M 503.0625 197.71875 C 503.1334 197.85355 503.1933 198.00905 503.28125 198.15625 C 503.36485 198.29497 503.45605 198.41935 503.53125 198.5625 C 504.06645 199.58114 504.42654 200.5288 504.65625 201.375 C 504.88153 202.21275 504.97955 202.9378 504.9375 203.59375 C 504.8994 204.23684 504.75301 204.78919 504.46875 205.25 C 504.19292 205.70649 503.81518 206.06484 503.34375 206.3125 C 502.69549 206.65265 502.00867 206.76409 501.3125 206.625 C 500.61631 206.48578 499.91718 206.08126 499.21875 205.40625 L 503.0625 197.71875 z M 56.34375 199.375 C 55.314193 199.372 54.339857 199.60927 53.40625 200.09375 C 52.476688 200.56961 51.575496 201.27301 50.75 202.21875 C 49.933075 203.1686 49.21659 204.36562 48.5625 205.75 C 47.843406 207.2719 47.385304 208.63269 47.1875 209.875 C 46.990032 211.1173 46.984384 212.24554 47.21875 213.21875 C 47.457172 214.18337 47.903166 214.99108 48.53125 215.6875 C 49.159335 216.38403 49.946353 216.96753 50.875 217.40625 C 51.94982 217.91412 52.979053 218.15837 54 218.15625 C 55.020931 218.15526 56.007928 217.91337 56.9375 217.4375 C 57.879701 216.95714 58.745575 216.26236 59.5625 215.3125 C 60.379391 214.36264 61.127137 213.16564 61.78125 211.78125 C 62.504389 210.25074 62.95841 208.86731 63.15625 207.625 C 63.354041 206.38269 63.332162 205.2771 63.09375 204.3125 C 62.863907 203.35188 62.440572 202.54015 61.8125 201.84375 C 61.184405 201.14733 60.397375 200.56374 59.46875 200.125 C 58.402512 199.62126 57.373273 199.37712 56.34375 199.375 z M 484.3125 200.78125 C 484.65165 200.74935 484.97048 200.7823 485.3125 200.875 C 486.00116 201.04762 486.70728 201.4743 487.40625 202.1875 L 483.1875 209.71875 C 483.098 209.57159 483.03696 209.42781 482.96875 209.28125 C 482.89655 209.12604 482.79895 208.95364 482.71875 208.78125 C 482.22926 207.7293 481.90339 206.7851 481.71875 205.9375 C 481.54275 205.08583 481.4975 204.33669 481.5625 203.6875 C 481.6362 203.03444 481.82349 202.49642 482.125 202.0625 C 482.42252 201.61989 482.79842 201.28724 483.28125 201.0625 C 483.61752 200.90604 483.97335 200.81319 484.3125 200.78125 z M 56.953125 202.33203 C 57.336747 202.35016 57.701349 202.45434 58.0625 202.625 C 58.733179 202.9419 59.236123 203.41821 59.53125 204.0625 C 59.839 204.70228 59.944992 205.50658 59.84375 206.5 L 51.34375 208.09375 C 51.39967 207.93089 51.462225 207.77113 51.53125 207.625 C 51.60436 207.47016 51.699998 207.29698 51.78125 207.125 C 52.276889 206.07605 52.778931 205.21531 53.3125 204.53125 C 53.854628 203.8513 54.396838 203.33389 54.9375 202.96875 C 55.486731 202.60773 56.035999 202.38932 56.5625 202.34375 C 56.695134 202.33017 56.825251 202.32599 56.953125 202.33203 z M 44.96875 202.6875 C 44.89655 202.82143 44.822796 202.96983 44.75 203.125 C 44.68167 203.27178 44.60788 203.42017 44.53125 203.5625 C 43.985379 204.57551 43.44843 205.39929 42.875 206.0625 C 42.306061 206.71742 41.723789 207.23093 41.15625 207.5625 C 40.601574 207.89015 40.041032 208.0402 39.5 208.0625 C 38.967311 208.0888 38.468832 207.9713 38 207.71875 C 37.355353 207.37137 36.898534 206.87388 36.625 206.21875 C 36.351433 205.5636 36.299061 204.76895 36.46875 203.8125 L 44.96875 202.6875 z M 471.15625 203.9375 C 470.21841 203.9335 469.26184 204.13932 468.3125 204.53125 C 467.22253 204.9814 466.31947 205.58381 465.625 206.34375 C 464.93053 207.10392 464.45705 207.98329 464.1875 209 C 463.91435 210.0079 463.85549 211.12806 464 212.375 C 464.15332 213.61841 464.50938 214.95988 465.09375 216.375 C 465.7362 217.93088 466.46379 219.20549 467.25 220.1875 C 468.03619 221.16952 468.87222 221.89376 469.75 222.375 C 470.62416 222.84743 471.53091 223.0895 472.46875 223.09375 C 473.40656 223.09775 474.33191 222.89205 475.28125 222.5 C 476.38001 222.04633 477.28305 221.4439 477.96875 220.6875 C 478.6544 219.93109 479.13306 219.03916 479.40625 218.03125 C 479.68446 217.0109 479.74705 215.89967 479.59375 214.65625 C 479.44044 213.41296 479.08438 212.07148 478.5 210.65625 C 477.85393 209.09167 477.12993 207.82575 476.34375 206.84375 C 475.55754 205.86163 474.71791 205.12868 473.84375 204.65625 C 472.9784 204.18017 472.09408 203.94175 471.15625 203.9375 z M 489.15625 204.78125 C 489.22045 204.91921 489.29417 205.0675 489.375 205.21875 C 489.4518 205.36132 489.52555 205.50971 489.59375 205.65625 C 490.07921 206.69962 490.4051 207.64384 490.59375 208.5 C 490.77835 209.34772 490.82372 210.09696 490.75 210.75 C 490.6808 211.39061 490.49365 211.95966 490.1875 212.40625 C 489.88999 212.84887 489.5141 213.18164 489.03125 213.40625 C 488.36733 213.71523 487.68867 213.76626 487 213.59375 C 486.31134 213.42115 485.63384 212.98924 484.96875 212.28125 L 489.15625 204.78125 z M 70.1875 205.6875 C 69.158963 205.7334 68.191013 206.00337 67.28125 206.53125 C 66.375125 207.05039 65.530053 207.79767 64.75 208.78125 C 63.978712 209.76847 63.306931 210.9926 62.71875 212.40625 C 62.072112 213.96032 61.701595 215.34341 61.5625 216.59375 C 61.423392 217.84396 61.47007 218.9451 61.75 219.90625 C 62.033578 220.85857 62.527313 221.67771 63.1875 222.34375 C 63.847677 223.00991 64.645479 223.54295 65.59375 223.9375 C 66.691278 224.39415 67.730262 224.58139 68.75 224.53125 C 69.769736 224.48165 70.750113 224.20654 71.65625 223.6875 C 72.574789 223.16318 73.416199 222.42473 74.1875 221.4375 C 74.958766 220.45028 75.630545 219.22602 76.21875 217.8125 C 76.869024 216.2496 77.267133 214.84409 77.40625 213.59375 C 77.545326 212.34354 77.47107 211.26481 77.1875 210.3125 C 76.912687 209.36384 76.441415 208.54104 75.78125 207.875 C 75.121051 207.20886 74.323261 206.6759 73.375 206.28125 C 72.286226 205.82827 71.216005 205.64173 70.1875 205.6875 z M 470.21875 207 C 470.55897 206.9829 470.91237 207.0175 471.25 207.125 C 471.93042 207.32765 472.583 207.78801 473.25 208.53125 L 468.71875 215.875 C 468.63575 215.72402 468.56173 215.58697 468.5 215.4375 C 468.4347 215.27922 468.38505 215.11329 468.3125 214.9375 C 467.8697 213.86515 467.55347 212.88615 467.40625 212.03125 C 467.26772 211.17271 467.25027 210.42691 467.34375 209.78125 C 467.44604 209.13194 467.64846 208.60784 467.96875 208.1875 C 468.28541 207.75836 468.69526 207.42206 469.1875 207.21875 C 469.53031 207.07701 469.87852 207.01707 470.21875 207 z M 70.9375 208.59375 C 71.326351 208.58775 71.724968 208.65915 72.09375 208.8125 C 72.778604 209.09756 73.268615 209.55782 73.59375 210.1875 C 73.931289 210.81214 74.085615 211.62795 74.03125 212.625 L 65.625 214.59375 C 65.67319 214.42834 65.750391 214.27435 65.8125 214.125 L 66 213.625 C 66.445694 212.55381 66.936732 211.67715 67.4375 210.96875 C 67.947022 210.26399 68.445877 209.70271 68.96875 209.3125 C 69.500366 208.92596 70.038741 208.69522 70.5625 208.625 C 70.694347 208.6052 70.807882 208.59575 70.9375 208.59375 z M 58.9375 209.5 C 58.87249 209.63762 58.814519 209.80991 58.75 209.96875 C 58.68952 210.11899 58.631524 210.26001 58.5625 210.40625 C 58.070896 211.44669 57.568842 212.30733 57.03125 213 C 56.497679 213.68394 55.955493 214.20148 55.40625 214.5625 C 54.869656 214.91901 54.320388 215.13715 53.78125 215.1875 C 53.250694 215.2418 52.731511 215.1339 52.25 214.90625 C 51.587904 214.59346 51.120264 214.13967 50.8125 213.5 C 50.504669 212.8602 50.412316 212.05783 50.53125 211.09375 L 58.9375 209.5 z M 456.1875 209.625 C 455.47965 209.6677 454.7546 209.82892 454.03125 210.09375 C 452.92391 210.49925 452.006 211.05009 451.28125 211.78125 C 450.55651 212.51253 450.02934 213.40136 449.71875 214.40625 C 449.40489 215.40231 449.31245 216.4982 449.40625 217.75 C 449.50897 218.99861 449.81732 220.34349 450.34375 221.78125 C 450.9225 223.3619 451.59808 224.6744 452.34375 225.6875 C 453.08944 226.70071 453.89248 227.45231 454.75 227.96875 C 455.60424 228.47627 456.50063 228.77118 457.4375 228.8125 C 458.3744 228.8544 459.31678 228.69687 460.28125 228.34375 C 461.39752 227.93504 462.31543 227.35298 463.03125 226.625 C 463.74706 225.89704 464.24865 225.02731 464.5625 224.03125 C 464.8824 223.02306 465.00896 221.90486 464.90625 220.65625 C 464.80353 219.40775 464.4639 218.06287 463.9375 216.625 C 463.35546 215.03554 462.71443 213.73196 461.96875 212.71875 C 461.22307 211.70566 460.41673 210.94513 459.5625 210.4375 C 458.71717 209.9268 457.81188 209.66633 456.875 209.625 C 456.64077 209.6144 456.42345 209.6108 456.1875 209.625 z M 474.875 211.21875 C 474.9331 211.35941 475.01971 211.50162 475.09375 211.65625 C 475.16425 211.80206 475.21952 211.94428 475.28125 212.09375 C 475.72042 213.1573 476.00537 214.13628 476.15625 215 C 476.30348 215.8549 476.35234 216.60068 476.25 217.25 C 476.1529 217.88684 475.9192 218.41095 475.59375 218.84375 C 475.27709 219.27288 474.8985 219.60929 474.40625 219.8125 C 473.7294 220.09144 473.02416 220.14017 472.34375 219.9375 C 471.66332 219.73485 471.00836 219.23644 470.375 218.5 L 474.875 211.21875 z M 85.1875 211.34375 C 84.925999 211.33575 84.66265 211.3528 84.40625 211.375 C 83.380647 211.4651 82.417462 211.7773 81.53125 212.34375 C 80.648297 212.90148 79.86201 213.70258 79.125 214.71875 C 78.396897 215.73835 77.745568 216.96856 77.21875 218.40625 C 76.639577 219.98673 76.303899 221.40116 76.21875 222.65625 C 76.13357 223.91132 76.27272 224.98924 76.59375 225.9375 C 76.918041 226.87671 77.405513 227.6754 78.09375 228.3125 C 78.781974 228.94959 79.629374 229.45905 80.59375 229.8125 C 81.709923 230.22185 82.764583 230.37514 83.78125 230.28125 C 84.797905 230.18795 85.742045 229.87011 86.625 229.3125 C 87.520136 228.74927 88.334395 227.957 89.0625 226.9375 C 89.790584 225.91803 90.410659 224.68769 90.9375 223.25 C 91.519927 221.66059 91.852351 220.22384 91.9375 218.96875 C 92.02265 217.71366 91.91802 216.62671 91.59375 215.6875 C 91.278362 214.7515 90.781962 213.94961 90.09375 213.3125 C 89.405501 212.6754 88.558105 212.1972 87.59375 211.84375 C 86.763306 211.53913 85.972003 211.36913 85.1875 211.34375 z M 455.84375 212.625 C 456.18439 212.622 456.51076 212.69139 456.84375 212.8125 C 457.51538 213.04261 458.17623 213.54286 458.8125 214.3125 L 454 221.4375 C 453.9233 221.28325 453.83681 221.15182 453.78125 221 C 453.72235 220.83924 453.65917 220.64737 453.59375 220.46875 C 453.19483 219.37931 452.95613 218.42264 452.84375 217.5625 C 452.74018 216.69903 452.7554 215.95382 452.875 215.3125 C 453.00357 214.66787 453.22541 214.12579 453.5625 213.71875 C 453.89634 213.30278 454.3124 212.9956 454.8125 212.8125 C 455.16077 212.68485 455.50311 212.62823 455.84375 212.625 z M 85.28125 214.25 C 85.669471 214.2269 86.062452 214.30009 86.4375 214.4375 C 87.133967 214.69278 87.648082 215.10369 88 215.71875 C 88.364102 216.32827 88.542648 217.15762 88.53125 218.15625 L 80.21875 220.46875 C 80.25975 220.30156 80.319344 220.15184 80.375 220 C 80.4339 219.83934 80.497098 219.67853 80.5625 219.5 C 80.961696 218.41056 81.405182 217.47931 81.875 216.75 C 82.353734 216.02401 82.838152 215.47486 83.34375 215.0625 C 83.858255 214.65344 84.386004 214.40524 84.90625 214.3125 C 85.037121 214.287 85.151844 214.2577 85.28125 214.25 z M 441.6875 214.59375 L 438.90625 215.5 L 434.25 220.28125 L 436.21875 222.65625 L 439.4375 219.1875 L 443.125 230.59375 L 438.59375 232.0625 L 439.5625 235 L 451.375 231.1875 L 450.40625 228.25 L 446.53125 229.5 L 441.6875 214.59375 z M 73.28125 215.6875 C 73.22278 215.82802 73.18195 215.96336 73.125 216.125 C 73.07166 216.27792 72.99962 216.44448 72.9375 216.59375 C 72.495435 217.65622 72.035645 218.53277 71.53125 219.25 C 71.030492 219.95829 70.500378 220.5197 69.96875 220.90625 C 69.449536 221.28763 68.91116 221.51759 68.375 221.59375 C 67.847586 221.67305 67.366688 221.57954 66.875 221.375 C 66.198902 221.09371 65.681288 220.65578 65.34375 220.03125 C 65.006222 219.40663 64.864078 218.62487 64.9375 217.65625 L 73.28125 215.6875 z M 101.40625 216.78125 L 94.8125 217.9375 L 95.03125 221 L 99.65625 220.09375 L 96 231.5 L 91.46875 230.0625 L 90.53125 233 L 102.34375 236.8125 L 103.28125 233.84375 L 99.375 232.59375 L 104.1875 217.6875 L 101.40625 216.78125 z M 460.34375 217.03125 C 460.39605 217.17415 460.43214 217.34256 460.5 217.5 C 460.5645 217.64852 460.63195 217.78567 460.6875 217.9375 C 461.08314 219.01814 461.35305 220.00581 461.46875 220.875 C 461.58116 221.73515 461.566 222.48049 461.4375 223.125 C 461.31459 223.75738 461.09273 224.26834 460.75 224.6875 C 460.41616 225.10347 460.00008 225.41063 459.5 225.59375 C 458.81244 225.8503 458.10912 225.85506 457.4375 225.625 C 456.76586 225.39489 456.13419 224.91786 455.53125 224.15625 L 460.34375 217.03125 z M 426.9375 219.28125 C 426.22843 219.27325 425.49083 219.38269 424.75 219.59375 C 423.61589 219.91692 422.65145 220.41772 421.875 221.09375 C 421.09855 221.76978 420.53975 222.58303 420.15625 223.5625 C 419.77015 224.53279 419.56037 225.65095 419.5625 226.90625 C 419.5733 228.15901 419.79925 229.52749 420.21875 231 C 420.67995 232.61892 421.23693 233.96604 421.90625 235.03125 C 422.57559 236.09636 423.33894 236.92204 424.15625 237.5 C 424.97095 238.06893 425.81869 238.38953 426.75 238.5 C 427.68131 238.61047 428.66847 238.53184 429.65625 238.25 C 430.79951 237.92431 431.73268 237.42357 432.5 236.75 C 433.26732 236.07665 433.86389 235.25161 434.25 234.28125 C 434.64264 233.29932 434.82334 232.19026 434.8125 230.9375 C 434.8017 229.68485 434.57575 228.31628 434.15625 226.84375 C 433.69244 225.21571 433.13806 223.87768 432.46875 222.8125 C 431.79941 221.74733 431.06469 220.91267 430.25 220.34375 C 429.44444 219.77229 428.55631 219.45416 427.625 219.34375 C 427.39217 219.31615 427.17386 219.28435 426.9375 219.28125 z M 87.90625 221.21875 C 87.85383 221.36154 87.83118 221.5234 87.78125 221.6875 C 87.73458 221.84253 87.680656 221.97327 87.625 222.125 C 87.229048 223.2055 86.785573 224.13687 86.3125 224.875 C 85.842682 225.60431 85.358243 226.15345 84.84375 226.5625 C 84.341425 226.96581 83.813674 227.21403 83.28125 227.3125 C 82.757735 227.41447 82.250032 227.40185 81.75 227.21875 C 81.062438 226.96677 80.520352 226.51579 80.15625 225.90625 C 79.792173 225.29683 79.624564 224.50216 79.65625 223.53125 L 87.90625 221.21875 z M 116.125 221.25 L 109.59375 222.65625 L 109.90625 225.6875 L 114.53125 224.625 L 111.28125 236.15625 L 106.6875 234.875 L 105.875 237.84375 L 117.8125 241.1875 L 118.65625 238.21875 L 114.71875 237.125 L 118.9375 222.03125 L 116.125 221.25 z M 426.375 222.25 C 426.71495 222.2718 427.0518 222.35474 427.375 222.5 C 428.02794 222.77879 428.64067 223.34204 429.21875 224.15625 L 423.875 230.90625 C 423.8098 230.74684 423.76305 230.59302 423.71875 230.4375 C 423.67185 230.27293 423.61465 230.1204 423.5625 229.9375 C 423.24461 228.82171 423.04896 227.80364 423 226.9375 C 422.9602 226.06884 423.02111 225.31831 423.1875 224.6875 C 423.36303 224.05403 423.63395 223.56866 424 223.1875 C 424.36344 222.79717 424.80032 222.52091 425.3125 222.375 C 425.6692 222.27345 426.03505 222.22822 426.375 222.25 z M 396.96875 226.8125 L 394.125 227.40625 L 388.96875 231.71875 L 390.6875 234.25 L 394.25 231.15625 L 396.78125 242.875 L 392.125 243.875 L 392.78125 246.90625 L 404.9375 244.28125 L 404.28125 241.25 L 400.28125 242.125 L 396.96875 226.8125 z M 430.53125 227 C 430.57295 227.14633 430.63153 227.27547 430.6875 227.4375 C 430.7409 227.59039 430.7682 227.75083 430.8125 227.90625 C 431.12778 229.01295 431.32338 229.99981 431.375 230.875 C 431.424 231.74115 431.36299 232.49163 431.1875 233.125 C 431.0185 233.74662 430.74759 234.26322 430.375 234.65625 C 430.01154 235.04641 429.57468 235.3229 429.0625 235.46875 C 428.35825 235.6694 427.68418 235.62259 427.03125 235.34375 C 426.37831 235.06502 425.76416 234.52254 425.21875 233.71875 L 430.53125 227 z M 145.1875 228.375 C 144.64848 228.37413 144.12587 228.41249 143.625 228.53125 C 142.62326 228.76894 141.70106 229.24854 140.90625 229.9375 C 140.11335 230.6171 139.42581 231.51275 138.84375 232.625 C 138.27097 233.73918 137.8443 235.03254 137.53125 236.53125 C 137.18704 238.17899 137.05874 239.65206 137.15625 240.90625 C 137.25375 242.16043 137.54505 243.23335 138 244.125 C 138.4569 245.0074 139.07051 245.68805 139.84375 246.21875 C 140.617 246.74945 141.4946 247.13355 142.5 247.34375 C 143.66362 247.58165 144.75757 247.58345 145.75 247.34375 C 146.74243 247.10415 147.61335 246.64835 148.40625 245.96875 C 149.21036 245.28176 149.89597 244.36418 150.46875 243.25 C 151.0415 242.13582 151.49942 240.84267 151.8125 239.34375 C 152.15857 237.68676 152.28491 236.22304 152.1875 234.96875 C 152.09 233.71467 151.80062 232.6636 151.34375 231.78125 C 150.89614 230.90081 150.30447 230.18694 149.53125 229.65625 C 148.75799 229.12557 147.84913 228.77247 146.84375 228.5625 C 146.26658 228.44192 145.72652 228.37588 145.1875 228.375 z M 381 230 C 380.51834 229.997 380.03628 230.03199 379.53125 230.125 C 378.37152 230.33873 377.36854 230.74471 376.53125 231.34375 C 375.69395 231.94288 375.0375 232.71787 374.5625 233.65625 C 374.08579 234.58539 373.77414 235.65652 373.65625 236.90625 C 373.54774 238.15438 373.62885 239.55668 373.90625 241.0625 C 374.21124 242.7179 374.65387 244.09469 375.21875 245.21875 C 375.78363 246.34281 376.46019 247.2219 377.21875 247.875 C 377.97559 248.5188 378.80219 248.95765 379.71875 249.15625 C 380.63531 249.35525 381.58367 249.34245 382.59375 249.15625 C 383.76282 248.94095 384.7658 248.5349 385.59375 247.9375 C 386.42168 247.3402 387.08577 246.58535 387.5625 245.65625 C 388.04684 244.71615 388.32896 243.62313 388.4375 242.375 C 388.54601 241.12687 388.4649 239.75582 388.1875 238.25 C 387.88078 236.58536 387.43987 235.18656 386.875 234.0625 C 386.31011 232.93844 385.66307 232.05018 384.90625 231.40625 C 384.15874 230.76068 383.32281 230.35479 382.40625 230.15625 C 381.94798 230.05685 381.48166 230.00318 381 230 z M 145.28125 231.21875 C 145.53739 231.20195 145.80184 231.22775 146.0625 231.28125 C 146.78861 231.43294 147.3752 231.78602 147.8125 232.34375 C 148.26102 232.89405 148.55418 233.66656 148.6875 234.65625 L 140.8125 238.15625 C 140.8289 237.98491 140.842 237.84578 140.875 237.6875 C 140.9099 237.51999 140.9611 237.34257 141 237.15625 C 141.23721 236.0205 141.51575 235.03967 141.875 234.25 C 142.24354 233.46246 142.65321 232.825 143.09375 232.34375 C 143.54361 231.86453 144.02997 231.5423 144.53125 231.375 C 144.78287 231.2867 145.02511 231.23557 145.28125 231.21875 z M 161.34375 231.53125 L 155 233.59375 L 155.625 236.59375 L 160.09375 235.0625 L 158 246.84375 L 153.34375 246.03125 L 152.78125 249.09375 L 165 251.21875 L 165.5625 248.1875 L 161.53125 247.46875 L 164.25 232.0625 L 161.34375 231.53125 z M 366.4375 232.59375 L 363.53125 233.03125 L 358.15625 237.03125 L 359.71875 239.65625 L 363.46875 236.75 L 365.3125 248.59375 L 360.59375 249.34375 L 361.09375 252.375 L 373.34375 250.5 L 372.875 247.4375 L 368.8125 248.0625 L 366.4375 232.59375 z M 380.34375 232.90625 C 380.86956 232.89565 381.38189 233.01835 381.84375 233.28125 C 382.46718 233.62096 383.03332 234.22824 383.53125 235.09375 L 377.5625 241.3125 C 377.5128 241.14753 377.4668 241.00266 377.4375 240.84375 C 377.4066 240.67539 377.37815 240.49956 377.34375 240.3125 C 377.13359 239.17144 377.06008 238.14815 377.09375 237.28125 C 377.13685 236.41256 377.24307 235.67456 377.46875 235.0625 C 377.70378 234.44863 378.03682 233.96959 378.4375 233.625 C 378.83647 233.27107 379.28874 233.06542 379.8125 232.96875 C 379.99487 232.93475 380.16848 232.90945 380.34375 232.90625 z M 175.71875 233.84375 C 175.18069 233.87565 174.68016 233.97586 174.1875 234.125 C 173.20218 234.42349 172.3137 234.92012 171.5625 235.65625 C 170.81267 236.38314 170.20047 237.32291 169.6875 238.46875 C 169.18394 239.61576 168.81458 240.95367 168.59375 242.46875 C 168.35094 244.13444 168.29473 245.59781 168.46875 246.84375 C 168.64275 248.08965 168.99137 249.1379 169.5 250 C 170.01 250.8529 170.6645 251.5176 171.46875 252 C 172.27299 252.4824 173.2024 252.7893 174.21875 252.9375 C 175.39505 253.1089 176.46156 253.0499 177.4375 252.75 C 178.4134 252.4503 179.28141 251.94555 180.03125 251.21875 C 180.79186 250.48385 181.43392 249.55345 181.9375 248.40625 C 182.44104 247.25915 182.77916 245.92121 183 244.40625 C 183.24413 242.7311 183.29898 241.27704 183.125 240.03125 C 182.95098 238.78535 182.60374 237.72787 182.09375 236.875 C 181.59315 236.02361 180.92922 235.35746 180.125 234.875 C 179.32073 234.39263 178.42259 234.08558 177.40625 233.9375 C 176.82279 233.8525 176.25681 233.81138 175.71875 233.84375 z M 349.53125 234.84375 C 349.28371 234.85435 349.03597 234.87325 348.78125 234.90625 C 347.61141 235.05486 346.58816 235.38609 345.71875 235.9375 C 344.84933 236.48891 344.15162 237.24581 343.625 238.15625 C 343.09718 239.05735 342.71865 240.10242 342.53125 241.34375 C 342.3533 242.58381 342.36958 243.981 342.5625 245.5 C 342.77465 247.16983 343.12371 248.56495 343.625 249.71875 C 344.12628 250.87245 344.74781 251.8055 345.46875 252.5 C 346.18849 253.185 347.0022 253.65685 347.90625 253.90625 C 348.81032 254.15625 349.76235 254.22365 350.78125 254.09375 C 351.96053 253.94395 352.98375 253.58145 353.84375 253.03125 C 354.70372 252.48105 355.40965 251.74485 355.9375 250.84375 C 356.47353 249.93205 356.82202 248.8651 357 247.625 C 357.17795 246.3849 357.16166 245.01889 356.96875 243.5 C 356.75539 241.82071 356.40752 240.4038 355.90625 239.25 C 355.40494 238.0962 354.78224 237.15389 354.0625 236.46875 C 353.35218 235.78254 352.56029 235.34317 351.65625 235.09375 C 350.97819 234.90627 350.27389 234.8174 349.53125 234.84375 z M 191.96875 235.875 C 191.12682 235.8591 190.3261 235.97381 189.59375 236.21875 C 188.61728 236.54517 187.76125 237.08648 187.03125 237.84375 C 186.30233 238.59157 185.699 239.559 185.21875 240.71875 C 184.74792 241.87978 184.42775 243.19805 184.25 244.71875 C 184.05461 246.3907 184.07203 247.85325 184.28125 249.09375 C 184.49051 250.33425 184.84211 251.37135 185.375 252.21875 C 185.90899 253.05675 186.58864 253.7281 187.40625 254.1875 C 188.22386 254.647 189.16736 254.9432 190.1875 255.0625 C 191.3682 255.2005 192.43921 255.0775 193.40625 254.75 C 194.37324 254.4226 195.20857 253.90395 195.9375 253.15625 C 196.67695 252.40005 197.27918 251.44225 197.75 250.28125 C 198.22081 249.12045 198.54097 247.7708 198.71875 246.25 C 198.91527 244.56876 198.92803 243.11548 198.71875 241.875 C 198.50946 240.63462 198.12772 239.588 197.59375 238.75 C 197.06918 237.91317 196.41134 237.27192 195.59375 236.8125 C 194.77612 236.35308 193.83262 236.05679 192.8125 235.9375 C 192.51967 235.9035 192.24939 235.8803 191.96875 235.875 z M 176.375 236.65625 C 176.50453 236.65721 176.6495 236.6684 176.78125 236.6875 C 177.51527 236.79447 178.12316 237.1263 178.59375 237.65625 C 179.07508 238.17813 179.40016 238.92665 179.59375 239.90625 L 171.96875 243.90625 C 171.97475 243.73406 171.9768 243.56633 172 243.40625 C 172.0245 243.23693 172.0351 243.06323 172.0625 242.875 C 172.22983 241.72683 172.47096 240.74756 172.78125 239.9375 C 173.10094 239.12871 173.46469 238.44483 173.875 237.9375 C 174.29469 237.43167 174.75988 237.10394 175.25 236.90625 C 175.61862 236.75095 175.98642 236.6519 176.375 236.65625 z M 335.53125 236.65625 L 332.59375 236.9375 L 327.03125 240.625 L 328.4375 243.34375 L 332.34375 240.65625 L 333.53125 252.59375 L 328.8125 253.0625 L 329.125 256.125 L 341.46875 254.90625 L 341.15625 251.8125 L 337.09375 252.21875 L 335.53125 236.65625 z M 207.625 237.65625 L 201.4375 240.25 L 202.3125 243.1875 L 206.65625 241.28125 L 205.59375 253.21875 L 200.84375 252.78125 L 200.5625 255.875 L 212.9375 256.96875 L 213.21875 253.90625 L 209.125 253.53125 L 210.53125 237.9375 L 207.625 237.65625 z M 349.4375 237.71875 C 349.96304 237.73785 350.45978 237.8991 350.90625 238.1875 C 351.50975 238.5613 352.05113 239.20178 352.5 240.09375 L 346.1875 245.96875 C 346.147 245.80135 346.11405 245.62904 346.09375 245.46875 C 346.07215 245.2989 346.05525 245.12615 346.03125 244.9375 C 345.88508 243.78645 345.85544 242.76985 345.9375 241.90625 C 346.0289 241.04148 346.20926 240.31732 346.46875 239.71875 C 346.73766 239.11901 347.08071 238.66539 347.5 238.34375 C 347.91808 238.01265 348.37793 237.81692 348.90625 237.75 C 349.09021 237.7266 349.26232 237.71135 349.4375 237.71875 z M 148.53125 237.78125 C 148.50015 237.93017 148.4632 238.08047 148.4375 238.25 C 148.4137 238.41019 148.37665 238.59173 148.34375 238.75 C 148.10845 239.8764 147.82991 240.82609 147.46875 241.625 C 147.10949 242.41467 146.69984 243.05197 146.25 243.53125 C 145.81139 244.0032 145.32502 244.32526 144.8125 244.5 C 144.30923 244.67527 143.80255 244.70272 143.28125 244.59375 C 142.56445 244.44397 141.97978 244.11264 141.53125 243.5625 C 141.08271 243.01216 140.79674 242.2464 140.6875 241.28125 L 148.53125 237.78125 z M 318.47461 238.01172 C 318.22662 238.00618 317.97479 238.01187 317.71875 238.03125 C 316.54287 238.12045 315.49 238.43081 314.59375 238.9375 C 313.6975 239.44418 312.97834 240.14863 312.40625 241.03125 C 311.83345 241.90451 311.40633 242.95743 311.15625 244.1875 C 310.9156 245.41704 310.85305 246.7858 310.96875 248.3125 C 311.09598 249.991 311.4016 251.41615 311.84375 252.59375 C 312.2859 253.77155 312.84645 254.73865 313.53125 255.46875 C 314.21534 256.18935 314.98473 256.67375 315.875 256.96875 C 316.76524 257.26385 317.72582 257.39 318.75 257.3125 C 319.93532 257.2225 320.98821 256.91225 321.875 256.40625 C 322.76175 255.90035 323.48967 255.21685 324.0625 254.34375 C 324.64405 253.46025 325.04064 252.4169 325.28125 251.1875 C 325.52189 249.9579 325.58445 248.55795 325.46875 247.03125 C 325.34079 245.34336 325.06715 243.92781 324.625 242.75 C 324.18285 241.57241 323.62157 240.62687 322.9375 239.90625 C 322.26288 239.18499 321.484 238.66999 320.59375 238.375 C 319.92606 238.15368 319.21857 238.02833 318.47461 238.01172 z M 384.5625 238.03125 C 384.59 238.18092 384.61595 238.36469 384.65625 238.53125 C 384.69505 238.68857 384.7207 238.84109 384.75 239 C 384.95845 240.13171 385.06322 241.12376 385.03125 242 C 384.99755 242.86678 384.86003 243.60488 384.625 244.21875 C 384.3976 244.82147 384.06455 245.30066 383.65625 245.65625 C 383.25729 246.01005 382.805 246.24705 382.28125 246.34375 C 381.56111 246.47645 380.90467 246.37175 380.28125 246.03125 C 379.6578 245.69165 379.09141 245.10202 378.625 244.25 L 384.5625 238.03125 z M 223 238.6875 C 222.15841 238.7162 221.37464 238.87316 220.65625 239.15625 C 219.69839 239.53377 218.87648 240.14273 218.1875 240.9375 C 217.49911 241.72281 216.94956 242.69156 216.53125 243.875 C 216.12244 245.05929 215.87844 246.4094 215.78125 247.9375 C 215.67444 249.6173 215.75674 251.085 216.03125 252.3125 C 216.30578 253.5402 216.73557 254.557 217.3125 255.375 C 217.89002 256.1836 218.59676 256.80315 219.4375 257.21875 C 220.27824 257.63435 221.22499 257.8716 222.25 257.9375 C 223.43635 258.0125 224.48912 257.84755 225.4375 257.46875 C 226.38586 257.09075 227.21787 256.5353 227.90625 255.75 C 228.60472 254.956 229.15367 253.96535 229.5625 252.78125 C 229.97129 251.59695 230.21531 250.2154 230.3125 248.6875 C 230.41988 246.9981 230.337 245.54013 230.0625 244.3125 C 229.78795 243.08477 229.35876 242.08982 228.78125 241.28125 C 228.21321 240.47342 227.52822 239.85305 226.6875 239.4375 C 225.84674 239.02195 224.9 238.78461 223.875 238.71875 C 223.58079 238.69965 223.28053 238.6779 223 238.6875 z M 191.875 238.71875 C 192.00452 238.71875 192.149 238.70285 192.28125 238.71875 C 193.018 238.80475 193.63958 239.10865 194.125 239.625 C 194.62096 240.13297 194.96618 240.90124 195.1875 241.875 L 187.65625 246.0625 C 187.65721 245.8902 187.6688 245.72293 187.6875 245.5625 C 187.7075 245.39243 187.7279 245.22022 187.75 245.03125 C 187.88469 243.87893 188.08782 242.88106 188.375 242.0625 C 188.67162 241.245 189.04174 240.58119 189.4375 240.0625 C 189.84267 239.54498 190.26568 239.18025 190.75 238.96875 C 191.11407 238.80421 191.48644 238.72555 191.875 238.71875 z M 304.34375 239.125 L 301.4375 239.28125 L 295.6875 242.71875 L 296.96875 245.46875 L 300.96875 243 L 301.59375 254.96875 L 296.84375 255.1875 L 297 258.28125 L 309.40625 257.65625 L 309.25 254.5625 L 305.15625 254.78125 L 304.34375 239.125 z M 238.625 239.5 C 237.78438 239.5499 236.99244 239.73053 236.28125 240.03125 C 235.33299 240.43225 234.54417 241.0322 233.875 241.84375 C 233.20621 242.64584 232.67022 243.65022 232.28125 244.84375 C 231.90178 246.03759 231.68449 247.4076 231.625 248.9375 C 231.5597 250.6195 231.664 252.06075 231.96875 253.28125 C 232.27348 254.50175 232.71558 255.5091 233.3125 256.3125 C 233.90981 257.1067 234.64926 257.69905 235.5 258.09375 C 236.35074 258.48835 237.2862 258.7107 238.3125 258.75 C 239.50035 258.796 240.56125 258.62025 241.5 258.21875 C 242.43875 257.81745 243.23743 257.2396 243.90625 256.4375 C 244.5849 255.6263 245.12051 254.60025 245.5 253.40625 C 245.87945 252.21225 246.09676 250.87375 246.15625 249.34375 C 246.22195 247.65235 246.11725 246.18927 245.8125 244.96875 C 245.50776 243.74834 245.03478 242.73163 244.4375 241.9375 C 243.84969 241.1438 243.13198 240.55097 242.28125 240.15625 C 241.4305 239.76152 240.49504 239.5393 239.46875 239.5 C 239.17416 239.4883 238.90521 239.483 238.625 239.5 z M 286.4375 239.6875 C 285.25877 239.7226 284.23123 239.97287 283.3125 240.4375 C 282.39376 240.90212 281.61234 241.55104 281 242.40625 C 280.38739 243.252 279.93176 244.28289 279.625 245.5 C 279.32771 246.71709 279.20507 248.0944 279.25 249.625 C 279.2994 251.3075 279.51907 252.7406 279.90625 253.9375 C 280.29341 255.1344 280.81847 256.1139 281.46875 256.875 C 282.11875 257.6265 282.87433 258.1641 283.75 258.5 C 284.62562 258.8358 285.56709 258.99835 286.59375 258.96875 C 287.78198 258.93375 288.84076 258.68315 289.75 258.21875 C 290.65922 257.75445 291.41863 257.0957 292.03125 256.25 C 292.65307 255.3945 293.10898 254.37335 293.40625 253.15625 C 293.70346 251.93935 293.82619 250.56185 293.78125 249.03125 C 293.73155 247.33925 293.51216 245.8844 293.125 244.6875 C 292.73781 243.49047 292.21248 242.53278 291.5625 241.78125 C 290.92198 241.0295 290.18813 240.49191 289.3125 240.15625 C 288.43683 239.82037 287.46413 239.65776 286.4375 239.6875 z M 254.4375 240.125 L 248.46875 243.15625 L 249.5625 246 L 253.71875 243.78125 L 253.53125 255.75 L 248.8125 255.6875 L 248.75 258.78125 L 261.15625 258.96875 L 261.21875 255.875 L 257.125 255.81055 L 257.34375 240.1543 L 254.4375 240.125 z M 317.71875 240.875 C 318.4584 240.8187 319.11245 241.02333 319.6875 241.4375 C 320.27125 241.84157 320.75318 242.49273 321.15625 243.40625 L 314.5625 248.96875 C 314.5306 248.79945 314.5119 248.62995 314.5 248.46875 C 314.487 248.29805 314.48335 248.1272 314.46875 247.9375 C 314.38105 246.7806 314.40555 245.76463 314.53125 244.90625 C 314.66642 244.04722 314.86676 243.33476 315.15625 242.75 C 315.45522 242.1646 315.81495 241.70622 316.25 241.40625 C 316.68433 241.09671 317.18772 240.91547 317.71875 240.875 z M 223.09375 241.53125 C 223.22297 241.52065 223.33588 241.52065 223.46875 241.53125 C 224.20903 241.57795 224.83173 241.85385 225.34375 242.34375 C 225.86585 242.82495 226.29005 243.53931 226.5625 244.5 L 219.25 249.09375 C 219.242 248.92175 219.2394 248.75505 219.25 248.59375 C 219.2608 248.42295 219.26925 248.2523 219.28125 248.0625 C 219.35485 246.9046 219.53773 245.89513 219.78125 245.0625 C 220.03426 244.23056 220.31971 243.53888 220.6875 243 C 221.06477 242.46177 221.49628 242.08052 221.96875 241.84375 C 222.32353 241.65966 222.70609 241.55865 223.09375 241.53125 z M 238.75 242.34375 C 238.87896 242.33205 239.02321 242.34375 239.15625 242.34375 C 239.89747 242.37245 240.53854 242.61659 241.0625 243.09375 C 241.59631 243.56188 241.98518 244.26507 242.28125 245.21875 L 235.125 250 C 235.1122 249.8282 235.08735 249.6616 235.09375 249.5 C 235.10075 249.3289 235.1176 249.15875 235.125 248.96875 C 235.17 247.80925 235.30835 246.80715 235.53125 245.96875 C 235.76365 245.13072 236.05188 244.42279 236.40625 243.875 C 236.77013 243.32763 237.18977 242.93586 237.65625 242.6875 C 238.00637 242.49396 238.36312 242.38051 238.75 242.34375 z M 286.3125 242.53125 C 287.05395 242.50895 287.69476 242.71585 288.25 243.15625 C 288.81445 243.58688 289.2959 244.25623 289.65625 245.1875 L 282.8125 250.4375 C 282.7885 250.2669 282.78655 250.0992 282.78125 249.9375 C 282.77725 249.7665 282.7553 249.59635 282.75 249.40625 C 282.7159 248.24655 282.7722 247.25795 282.9375 246.40625 C 283.11227 245.55434 283.37125 244.82063 283.6875 244.25 C 284.01324 243.67915 284.39528 243.24844 284.84375 242.96875 C 285.29194 242.67972 285.78024 242.55238 286.3125 242.53125 z M 179.625 243.03125 C 179.6031 243.18188 179.5778 243.36044 179.5625 243.53125 C 179.5486 243.69271 179.55345 243.83992 179.53125 244 C 179.36529 245.13861 179.12414 246.1179 178.8125 246.9375 C 178.50221 247.7476 178.13846 248.40025 177.71875 248.90625 C 177.30983 249.40405 176.84463 249.76315 176.34375 249.96875 C 175.85224 250.17595 175.33949 250.23275 174.8125 250.15625 C 174.08787 250.05005 173.48135 249.74055 173 249.21875 C 172.51864 248.69695 172.19934 247.9568 172.03125 247 L 179.625 243.03125 z M 353.34375 243.09375 C 353.36295 243.24459 353.4065 243.39392 353.4375 243.5625 C 353.4673 243.72173 353.4796 243.87086 353.5 244.03125 C 353.645 245.17274 353.67464 246.1894 353.59375 247.0625 C 353.51175 247.9261 353.36266 248.6503 353.09375 249.25 C 352.83306 249.8393 352.45877 250.32395 352.03125 250.65625 C 351.61317 250.98735 351.15329 251.1831 350.625 251.25 C 349.89855 251.342 349.2285 251.186 348.625 250.8125 C 348.02147 250.4386 347.5119 249.8142 347.09375 248.9375 L 353.34375 243.09375 z M 195.3125 245 C 195.2949 245.15115 195.29185 245.29762 195.28125 245.46875 C 195.27325 245.63042 195.23755 245.80825 195.21875 245.96875 C 195.08516 247.11185 194.88201 248.07825 194.59375 248.90625 C 194.30655 249.72485 193.96768 250.38885 193.5625 250.90625 C 193.16785 251.41555 192.7136 251.7802 192.21875 252 C 191.73331 252.2195 191.21645 252.3127 190.6875 252.25 C 189.96017 252.165 189.37097 251.8829 188.875 251.375 C 188.37903 250.8669 188.03892 250.139 187.84375 249.1875 L 195.3125 245 z M 321.875 246.46875 C 321.8865 246.62055 321.915 246.7675 321.9375 246.9375 C 321.9593 247.098 321.95685 247.24505 321.96875 247.40625 C 322.05575 248.55385 322.0624 249.5696 321.9375 250.4375 C 321.81182 251.2958 321.58023 252.00835 321.28125 252.59375 C 320.99105 253.16885 320.6313 253.6273 320.1875 253.9375 C 319.75317 254.2469 319.28103 254.42845 318.75 254.46875 C 318.01982 254.52375 317.36502 254.3416 316.78125 253.9375 C 316.19745 253.5335 315.71691 252.8968 315.34375 252 L 321.875 246.46875 z M 226.84375 247.625 C 226.83315 247.7769 226.8135 247.92235 226.8125 248.09375 C 226.81176 248.25575 226.8231 248.43235 226.8125 248.59375 C 226.7395 249.74205 226.58786 250.7204 226.34375 251.5625 C 226.10023 252.3951 225.78352 253.0866 225.40625 253.625 C 225.03907 254.1543 224.60754 254.53565 224.125 254.78125 C 223.65191 255.02675 223.15649 255.159 222.625 255.125 C 221.8942 255.078 221.2721 254.7936 220.75 254.3125 C 220.22787 253.8315 219.83891 253.1273 219.59375 252.1875 L 226.84375 247.625 z M 290.21875 248.28125 C 290.22375 248.43325 290.2355 248.5791 290.25 248.75 C 290.2648 248.9113 290.27595 249.0886 290.28125 249.25 C 290.31505 250.4003 290.25875 251.3889 290.09375 252.25 C 289.92847 253.1016 289.6695 253.83535 289.34375 254.40625 C 289.02724 254.96735 288.64519 255.3982 288.1875 255.6875 C 287.7393 255.9766 287.25096 256.1037 286.71875 256.125 C 285.98678 256.146 285.3457 255.96175 284.78125 255.53125 C 284.21677 255.10055 283.76877 254.4131 283.4375 253.5 L 290.21875 248.28125 z M 242.65625 248.34375 C 242.65025 248.49585 242.65325 248.6411 242.65625 248.8125 C 242.65925 248.9744 242.66225 249.151 242.65625 249.3125 C 242.61155 250.4624 242.47326 251.4646 242.25 252.3125 C 242.02709 253.1509 241.73886 253.8276 241.375 254.375 C 241.02099 254.9133 240.60134 255.305 240.125 255.5625 C 239.65817 255.8206 239.15714 255.9577 238.625 255.9375 C 237.89327 255.9085 237.25256 255.6554 236.71875 255.1875 C 236.18492 254.7193 235.79954 254.02735 235.53125 253.09375 L 242.65625 248.34375 z "
         transform="translate(4,754.36218)"
         id="path3909" />
    </g>
  </g>
</svg>
